{
  "source": "C:\\Users\\Peter\\Desktop\\stuff\\MIUN\\quantitative_research\\video_compression\\videos\\BVI-HD\\BVI-HD_CDVL_videos\\ORIG\\Rowing_1920x1080_30fps.mp4",
  "output": "C:\\Users\\Peter\\Desktop\\stuff\\MIUN\\quantitative_research\\video_compression\\compressed_videos\\BVI-HD\\hevc\\3\\Rowing_1920x1080_30fps_hevc.mp4",
  "codec": "hevc",
  "ok": "Input #0, mov,mp4,m4a,3gp,3g2,mj2, from 'C:\\Users\\Peter\\Desktop\\stuff\\MIUN\\quantitative_research\\video_compression\\videos\\BVI-HD\\BVI-HD_CDVL_videos\\ORIG\\Rowing_1920x1080_30fps.mp4':\n  Metadata:\n    major_brand     : isom\n    minor_version   : 512\n    compatible_brands: isomiso2avc1mp41\n    encoder         : Lavf54.28.101\n  Duration: 00:00:05.00, start: 0.000000, bitrate: 259220 kb/s\n  Stream #0:0[0x1](und): Video: h264 (High 4:4:4 Predictive) (avc1 / 0x31637661), yuv420p(progressive), 1920x1080, 259216 kb/s, 30 fps, 30 tbr, 30 tbn (default)\n    Metadata:\n      handler_name    : VideoHandler\n      vendor_id       : [0][0][0][0]\n[out#0/mp4 @ 0000021c19f5f040] Codec AVOption b:a (set bitrate (in bits/s)) has not been used for any stream. The most likely reason is either wrong type (e.g. a video option with no video streams) or that it is a private option of some decoder which was not actually used for any stream.\nStream mapping:\n  Stream #0:0 -> #0:0 (h264 (native) -> hevc (libx265))\nPress [q] to stop, [?] for help\n[libx265 @ 0000021c1a0175c0] Unknown option: \"aq-mode.\nx265 [info]: HEVC encoder version 4.1+190-8f11c33ac\nx265 [info]: build info [Windows][GCC 15.1.0][64 bit] 10bit\nx265 [info]: using cpu capabilities: MMX2 SSE2Fast LZCNT SSSE3 SSE4.2 AVX FMA3 BMI2 AVX2\nx265 [info]: Main 10 profile, Level-4 (Main tier)\nx265 [info]: Thread pool created using 12 threads\nx265 [info]: Slices                              : 1\nx265 [info]: frame threads / pool features       : 3 / wpp(17 rows)\nx265 [info]: Coding QT: max CU size, min CU size : 64 / 8\nx265 [info]: Residual QT: max TU size, max depth : 32 / 1 inter / 1 intra\nx265 [info]: ME / range / subpel / merge         : star / 57 / 3 / 3\nx265 [info]: Keyframe min / max / scenecut / bias  : 25 / 250 / 40 / 5.00 \nx265 [info]: Lookahead / bframes / badapt        : 25 / 4 / 2\nx265 [info]: b-pyramid / weightp / weightb       : 1 / 1 / 0\nx265 [info]: References / ref-limit  cu / depth  : 4 / on / on\nx265 [info]: AQ: mode / str / qg-size / cu-tree  : 2 / 1.0 / 32 / 1\nx265 [info]: Rate Control / qCompress            : ABR-3000 kbps / 0.60\nx265 [info]: VBV/HRD buffer / max-rate / init    : 3000 / 3000 / 0.750\nx265 [info]: tools: rect limit-modes rd=4 psy-rd=2.00 rdoq=2 psy-rdoq=1.00\nx265 [info]: tools: rskip mode=1 signhide tmvp strong-intra-smoothing lslices=4\nx265 [info]: tools: deblock sao dhdr10-info\nOutput #0, mp4, to 'C:\\Users\\Peter\\Desktop\\stuff\\MIUN\\quantitative_research\\video_compression\\compressed_videos\\BVI-HD\\hevc\\3\\Rowing_1920x1080_30fps_hevc.mp4':\n  Metadata:\n    major_brand     : isom\n    minor_version   : 512\n    compatible_brands: isomiso2avc1mp41\n    encoder         : Lavf62.3.100\n  Stream #0:0(und): Video: hevc (hev1 / 0x31766568), yuv420p10le(tv, progressive), 1920x1080, q=2-31, 3000 kb/s, 30 fps, 15360 tbn (default)\n    Metadata:\n      encoder         : Lavc62.11.100 libx265\n      handler_name    : VideoHandler\n      vendor_id       : [0][0][0][0]\n    Side data:\n      cpb: bitrate max/min/avg: 3000000/0/3000000 buffer size: 3000000 vbv_delay: N/A\nframe=    0 fps=0.0 q=0.0 size=       0KiB time=N/A bitrate=N/A speed=N/A elapsed=0:00:01.08    \nframe=    0 fps=0.0 q=0.0 size=       0KiB time=N/A bitrate=N/A speed=N/A elapsed=0:00:01.69    \nframe=    0 fps=0.0 q=0.0 size=       0KiB time=N/A bitrate=N/A speed=N/A elapsed=0:00:02.22    \nframe=    0 fps=0.0 q=0.0 size=       0KiB time=N/A bitrate=N/A speed=N/A elapsed=0:00:02.74    \nframe=    0 fps=0.0 q=0.0 size=       0KiB time=N/A bitrate=N/A speed=N/A elapsed=0:00:03.26    \nframe=    0 fps=0.0 q=0.0 size=       0KiB time=N/A bitrate=N/A speed=N/A elapsed=0:00:03.77    \nframe=    0 fps=0.0 q=0.0 size=       0KiB time=N/A bitrate=N/A speed=N/A elapsed=0:00:04.29    \nframe=    0 fps=0.0 q=0.0 size=       0KiB time=N/A bitrate=N/A speed=N/A elapsed=0:00:04.83    \nframe=    0 fps=0.0 q=0.0 size=       0KiB time=N/A bitrate=N/A speed=N/A elapsed=0:00:05.36    \nframe=    0 fps=0.0 q=0.0 size=       0KiB time=N/A bitrate=N/A speed=N/A elapsed=0:00:05.90    \nframe=    0 fps=0.0 q=0.0 size=       0KiB time=N/A bitrate=N/A speed=N/A elapsed=0:00:06.44    \nframe=    0 fps=0.0 q=0.0 size=       0KiB time=N/A bitrate=N/A speed=N/A elapsed=0:00:06.96    \nframe=    0 fps=0.0 q=0.0 size=       0KiB time=N/A bitrate=N/A speed=N/A elapsed=0:00:07.50    \nframe=    0 fps=0.0 q=0.0 size=       0KiB time=N/A bitrate=N/A speed=N/A elapsed=0:00:08.01    \nframe=    0 fps=0.0 q=0.0 size=       0KiB time=N/A bitrate=N/A speed=N/A elapsed=0:00:08.53    \nframe=    0 fps=0.0 q=0.0 size=       0KiB time=N/A bitrate=N/A speed=N/A elapsed=0:00:09.05    \nframe=    0 fps=0.0 q=0.0 size=       0KiB time=N/A bitrate=N/A speed=N/A elapsed=0:00:09.58    \nframe=    0 fps=0.0 q=0.0 size=       0KiB time=N/A bitrate=N/A speed=N/A elapsed=0:00:10.10    \nframe=    0 fps=0.0 q=0.0 size=       0KiB time=N/A bitrate=N/A speed=N/A elapsed=0:00:10.64    \nframe=    0 fps=0.0 q=0.0 size=       0KiB time=N/A bitrate=N/A speed=N/A elapsed=0:00:11.17    \nframe=    0 fps=0.0 q=0.0 size=       0KiB time=N/A bitrate=N/A speed=N/A elapsed=0:00:11.68    \nframe=    0 fps=0.0 q=0.0 size=       0KiB time=N/A bitrate=N/A speed=N/A elapsed=0:00:12.23    \nframe=    0 fps=0.0 q=0.0 size=       0KiB time=N/A bitrate=N/A speed=N/A elapsed=0:00:12.78    \nframe=    0 fps=0.0 q=0.0 size=       0KiB time=N/A bitrate=N/A speed=N/A elapsed=0:00:13.32    \nframe=    0 fps=0.0 q=0.0 size=       0KiB time=N/A bitrate=N/A speed=N/A elapsed=0:00:13.86    \nframe=    0 fps=0.0 q=0.0 size=       0KiB time=N/A bitrate=N/A speed=N/A elapsed=0:00:14.38    \nframe=    1 fps=0.1 q=35.9 size=       0KiB time=-00:00:00.03 bitrate=N/A speed=N/A elapsed=0:00:14.90    \nframe=    1 fps=0.1 q=35.9 size=       0KiB time=-00:00:00.03 bitrate=N/A speed=N/A elapsed=0:00:15.43    \nframe=    1 fps=0.1 q=35.9 size=       0KiB time=-00:00:00.03 bitrate=N/A speed=N/A elapsed=0:00:15.97    \nframe=    1 fps=0.1 q=35.9 size=       0KiB time=-00:00:00.03 bitrate=N/A speed=N/A elapsed=0:00:16.49    \nframe=    1 fps=0.1 q=35.9 size=       0KiB time=-00:00:00.03 bitrate=N/A speed=N/A elapsed=0:00:17.01    \nframe=    1 fps=0.1 q=35.9 size=       0KiB time=-00:00:00.03 bitrate=N/A speed=N/A elapsed=0:00:17.52    \nframe=    2 fps=0.1 q=40.2 size=       0KiB time=00:00:00.00 bitrate=N/A speed=   0x elapsed=0:00:18.04    \nframe=    2 fps=0.1 q=40.2 size=       0KiB time=00:00:00.00 bitrate=N/A speed=   0x elapsed=0:00:18.57    \nframe=    3 fps=0.2 q=47.3 size=       0KiB time=00:00:00.03 bitrate=  10.6kbits/s speed=0.00174x elapsed=0:00:19.10    \nframe=    3 fps=0.2 q=47.3 size=       0KiB time=00:00:00.03 bitrate=  10.6kbits/s speed=0.00169x elapsed=0:00:19.66    \nframe=    3 fps=0.1 q=47.3 size=       0KiB time=00:00:00.03 bitrate=  10.6kbits/s speed=0.00165x elapsed=0:00:20.19    \nframe=    3 fps=0.1 q=47.3 size=       0KiB time=00:00:00.03 bitrate=  10.6kbits/s speed=0.00161x elapsed=0:00:20.72    \nframe=    3 fps=0.1 q=47.3 size=       0KiB time=00:00:00.03 bitrate=  10.6kbits/s speed=0.00157x elapsed=0:00:21.27    \nframe=    3 fps=0.1 q=47.3 size=       0KiB time=00:00:00.03 bitrate=  10.6kbits/s speed=0.00153x elapsed=0:00:21.81    \nframe=    4 fps=0.2 q=48.6 size=       0KiB time=00:00:00.06 bitrate=   5.3kbits/s speed=0.00298x elapsed=0:00:22.33    \nframe=    4 fps=0.2 q=48.6 size=       0KiB time=00:00:00.06 bitrate=   5.3kbits/s speed=0.00291x elapsed=0:00:22.87    \nframe=    4 fps=0.2 q=48.6 size=       0KiB time=00:00:00.06 bitrate=   5.3kbits/s speed=0.00285x elapsed=0:00:23.39    \nframe=    4 fps=0.2 q=48.6 size=       0KiB time=00:00:00.06 bitrate=   5.3kbits/s speed=0.00279x elapsed=0:00:23.90    \nframe=    4 fps=0.2 q=48.6 size=       0KiB time=00:00:00.06 bitrate=   5.3kbits/s speed=0.00273x elapsed=0:00:24.42    \nframe=    5 fps=0.2 q=50.0 size=       0KiB time=00:00:00.10 bitrate=   3.5kbits/s speed=0.00401x elapsed=0:00:24.94    \nframe=    5 fps=0.2 q=50.0 size=       0KiB time=00:00:00.10 bitrate=   3.5kbits/s speed=0.00393x elapsed=0:00:25.47    \nframe=    5 fps=0.2 q=50.0 size=       0KiB time=00:00:00.10 bitrate=   3.5kbits/s speed=0.00385x elapsed=0:00:25.98    \nframe=    5 fps=0.2 q=50.0 size=       0KiB time=00:00:00.10 bitrate=   3.5kbits/s speed=0.00377x elapsed=0:00:26.49    \nframe=    5 fps=0.2 q=50.0 size=       0KiB time=00:00:00.10 bitrate=   3.5kbits/s speed=0.0037x elapsed=0:00:27.02    \nframe=    5 fps=0.2 q=50.0 size=       0KiB time=00:00:00.10 bitrate=   3.5kbits/s speed=0.00363x elapsed=0:00:27.54    \nframe=    6 fps=0.2 q=50.0 size=       0KiB time=00:00:00.13 bitrate=   2.6kbits/s speed=0.00475x elapsed=0:00:28.05    \nframe=    6 fps=0.2 q=50.0 size=       0KiB time=00:00:00.13 bitrate=   2.6kbits/s speed=0.00467x elapsed=0:00:28.57    \nframe=    6 fps=0.2 q=50.0 size=       0KiB time=00:00:00.13 bitrate=   2.6kbits/s speed=0.00458x elapsed=0:00:29.08    \nframe=    6 fps=0.2 q=50.0 size=       0KiB time=00:00:00.13 bitrate=   2.6kbits/s speed=0.0045x elapsed=0:00:29.60    \nframe=    6 fps=0.2 q=50.0 size=       0KiB time=00:00:00.13 bitrate=   2.6kbits/s speed=0.00443x elapsed=0:00:30.12    \nframe=    7 fps=0.2 q=50.1 size=       0KiB time=00:00:00.16 bitrate=   2.1kbits/s speed=0.00544x elapsed=0:00:30.65    \nframe=    7 fps=0.2 q=50.1 size=       0KiB time=00:00:00.16 bitrate=   2.1kbits/s speed=0.00534x elapsed=0:00:31.18    \nframe=    7 fps=0.2 q=50.1 size=       0KiB time=00:00:00.16 bitrate=   2.1kbits/s speed=0.00526x elapsed=0:00:31.71    \nframe=    8 fps=0.2 q=43.1 size=       0KiB time=00:00:00.20 bitrate=   1.8kbits/s speed=0.0062x elapsed=0:00:32.24    \nframe=    8 fps=0.2 q=43.1 size=       0KiB time=00:00:00.20 bitrate=   1.8kbits/s speed=0.0061x elapsed=0:00:32.76    \nframe=    8 fps=0.2 q=43.1 size=       0KiB time=00:00:00.20 bitrate=   1.8kbits/s speed=0.00601x elapsed=0:00:33.29    \nframe=    8 fps=0.2 q=43.1 size=       0KiB time=00:00:00.20 bitrate=   1.8kbits/s speed=0.00591x elapsed=0:00:33.82    \nframe=    8 fps=0.2 q=43.1 size=       0KiB time=00:00:00.20 bitrate=   1.8kbits/s speed=0.00582x elapsed=0:00:34.37    \nframe=    8 fps=0.2 q=43.1 size=       0KiB time=00:00:00.20 bitrate=   1.8kbits/s speed=0.00573x elapsed=0:00:34.88    \nframe=    9 fps=0.3 q=46.2 size=       0KiB time=00:00:00.23 bitrate=   1.5kbits/s speed=0.00659x elapsed=0:00:35.40    \nframe=    9 fps=0.3 q=46.2 size=       0KiB time=00:00:00.23 bitrate=   1.5kbits/s speed=0.0065x elapsed=0:00:35.91    \nframe=    9 fps=0.2 q=46.2 size=       0KiB time=00:00:00.23 bitrate=   1.5kbits/s speed=0.0064x elapsed=0:00:36.43    \nframe=    9 fps=0.2 q=46.2 size=       0KiB time=00:00:00.23 bitrate=   1.5kbits/s speed=0.00631x elapsed=0:00:36.96    \nframe=    9 fps=0.2 q=46.2 size=       0KiB time=00:00:00.23 bitrate=   1.5kbits/s speed=0.00622x elapsed=0:00:37.50    \nframe=    9 fps=0.2 q=46.2 size=       0KiB time=00:00:00.23 bitrate=   1.5kbits/s speed=0.00613x elapsed=0:00:38.08    \nframe=   10 fps=0.3 q=47.8 size=       0KiB time=00:00:00.26 bitrate=   1.3kbits/s speed=0.0069x elapsed=0:00:38.65    \nframe=   10 fps=0.3 q=47.8 size=       0KiB time=00:00:00.26 bitrate=   1.3kbits/s speed=0.00681x elapsed=0:00:39.17    \nframe=   10 fps=0.3 q=47.8 size=       0KiB time=00:00:00.26 bitrate=   1.3kbits/s speed=0.00672x elapsed=0:00:39.70    \nframe=   10 fps=0.2 q=47.8 size=       0KiB time=00:00:00.26 bitrate=   1.3kbits/s speed=0.00662x elapsed=0:00:40.27    \nframe=   10 fps=0.2 q=47.8 size=       0KiB time=00:00:00.26 bitrate=   1.3kbits/s speed=0.00654x elapsed=0:00:40.79    \nframe=   11 fps=0.3 q=45.7 size=       0KiB time=00:00:00.30 bitrate=   1.2kbits/s speed=0.00726x elapsed=0:00:41.32    \nframe=   11 fps=0.3 q=45.7 size=       0KiB time=00:00:00.30 bitrate=   1.2kbits/s speed=0.00717x elapsed=0:00:41.85    \nframe=   11 fps=0.3 q=45.7 size=       0KiB time=00:00:00.30 bitrate=   1.2kbits/s speed=0.00708x elapsed=0:00:42.39    \nframe=   11 fps=0.3 q=45.7 size=       0KiB time=00:00:00.30 bitrate=   1.2kbits/s speed=0.00699x elapsed=0:00:42.92    \nframe=   12 fps=0.3 q=41.4 size=       0KiB time=00:00:00.33 bitrate=   1.1kbits/s speed=0.00767x elapsed=0:00:43.45    \nframe=   12 fps=0.3 q=41.4 size=       0KiB time=00:00:00.33 bitrate=   1.1kbits/s speed=0.00758x elapsed=0:00:43.98    \nframe=   12 fps=0.3 q=41.4 size=       0KiB time=00:00:00.33 bitrate=   1.1kbits/s speed=0.00749x elapsed=0:00:44.51    \nframe=   12 fps=0.3 q=41.4 size=       0KiB time=00:00:00.33 bitrate=   1.1kbits/s speed=0.00739x elapsed=0:00:45.08    \nframe=   12 fps=0.3 q=41.4 size=       0KiB time=00:00:00.33 bitrate=   1.1kbits/s speed=0.00731x elapsed=0:00:45.60    \nframe=   13 fps=0.3 q=43.9 size=       0KiB time=00:00:00.36 bitrate=   1.0kbits/s speed=0.00795x elapsed=0:00:46.13    \nframe=   13 fps=0.3 q=43.9 size=       0KiB time=00:00:00.36 bitrate=   1.0kbits/s speed=0.00786x elapsed=0:00:46.65    \nframe=   13 fps=0.3 q=43.9 size=       0KiB time=00:00:00.36 bitrate=   1.0kbits/s speed=0.00777x elapsed=0:00:47.17    \nframe=   13 fps=0.3 q=43.9 size=       0KiB time=00:00:00.36 bitrate=   1.0kbits/s speed=0.00769x elapsed=0:00:47.69    \nframe=   13 fps=0.3 q=43.9 size=       0KiB time=00:00:00.36 bitrate=   1.0kbits/s speed=0.00761x elapsed=0:00:48.21    \nframe=   14 fps=0.3 q=45.4 size=       0KiB time=00:00:00.40 bitrate=   0.9kbits/s speed=0.00821x elapsed=0:00:48.73    \nframe=   14 fps=0.3 q=45.4 size=       0KiB time=00:00:00.40 bitrate=   0.9kbits/s speed=0.00812x elapsed=0:00:49.26    \nframe=   14 fps=0.3 q=45.4 size=       0KiB time=00:00:00.40 bitrate=   0.9kbits/s speed=0.00803x elapsed=0:00:49.79    \nframe=   14 fps=0.3 q=45.4 size=       0KiB time=00:00:00.40 bitrate=   0.9kbits/s speed=0.00795x elapsed=0:00:50.31    \nframe=   14 fps=0.3 q=45.4 size=       0KiB time=00:00:00.40 bitrate=   0.9kbits/s speed=0.00787x elapsed=0:00:50.83    \nframe=   15 fps=0.3 q=44.4 size=       0KiB time=00:00:00.43 bitrate=   0.8kbits/s speed=0.00844x elapsed=0:00:51.34    \nframe=   15 fps=0.3 q=44.4 size=       0KiB time=00:00:00.43 bitrate=   0.8kbits/s speed=0.00836x elapsed=0:00:51.85    \nframe=   15 fps=0.3 q=44.4 size=       0KiB time=00:00:00.43 bitrate=   0.8kbits/s speed=0.00827x elapsed=0:00:52.39    \nframe=   15 fps=0.3 q=44.4 size=       0KiB time=00:00:00.43 bitrate=   0.8kbits/s speed=0.00819x elapsed=0:00:52.93    \nframe=   15 fps=0.3 q=44.4 size=       0KiB time=00:00:00.43 bitrate=   0.8kbits/s speed=0.00811x elapsed=0:00:53.45    \nframe=   15 fps=0.3 q=44.4 size=       0KiB time=00:00:00.43 bitrate=   0.8kbits/s speed=0.00803x elapsed=0:00:53.99    \nframe=   16 fps=0.3 q=42.6 size=       0KiB time=00:00:00.46 bitrate=   0.8kbits/s speed=0.00856x elapsed=0:00:54.54    \nframe=   16 fps=0.3 q=42.6 size=       0KiB time=00:00:00.46 bitrate=   0.8kbits/s speed=0.00847x elapsed=0:00:55.11    \nframe=   16 fps=0.3 q=42.6 size=       0KiB time=00:00:00.46 bitrate=   0.8kbits/s speed=0.00838x elapsed=0:00:55.68    \nframe=   16 fps=0.3 q=42.6 size=       0KiB time=00:00:00.46 bitrate=   0.8kbits/s speed=0.0083x elapsed=0:00:56.24    \nframe=   16 fps=0.3 q=42.6 size=       0KiB time=00:00:00.46 bitrate=   0.8kbits/s speed=0.00822x elapsed=0:00:56.79    \nframe=   17 fps=0.3 q=44.6 size=       0KiB time=00:00:00.50 bitrate=   0.7kbits/s speed=0.00872x elapsed=0:00:57.33    \nframe=   17 fps=0.3 q=44.6 size=       0KiB time=00:00:00.50 bitrate=   0.7kbits/s speed=0.00864x elapsed=0:00:57.89    \nframe=   17 fps=0.3 q=44.6 size=       0KiB time=00:00:00.50 bitrate=   0.7kbits/s speed=0.00856x elapsed=0:00:58.39    \nframe=   17 fps=0.3 q=44.6 size=       0KiB time=00:00:00.50 bitrate=   0.7kbits/s speed=0.00849x elapsed=0:00:58.92    \nframe=   17 fps=0.3 q=44.6 size=       0KiB time=00:00:00.50 bitrate=   0.7kbits/s speed=0.00841x elapsed=0:00:59.48    \nframe=   17 fps=0.3 q=44.6 size=       0KiB time=00:00:00.50 bitrate=   0.7kbits/s speed=0.00833x elapsed=0:01:00.03    \nframe=   17 fps=0.3 q=44.6 size=       0KiB time=00:00:00.50 bitrate=   0.7kbits/s speed=0.00825x elapsed=0:01:00.57    \nframe=   17 fps=0.3 q=44.6 size=       0KiB time=00:00:00.50 bitrate=   0.7kbits/s speed=0.00817x elapsed=0:01:01.16    \nframe=   17 fps=0.3 q=44.6 size=       0KiB time=00:00:00.50 bitrate=   0.7kbits/s speed=0.00811x elapsed=0:01:01.68    \nframe=   18 fps=0.3 q=45.2 size=       0KiB time=00:00:00.53 bitrate=   0.7kbits/s speed=0.00858x elapsed=0:01:02.19    \nframe=   18 fps=0.3 q=45.2 size=       0KiB time=00:00:00.53 bitrate=   0.7kbits/s speed=0.0085x elapsed=0:01:02.73    \nframe=   18 fps=0.3 q=45.2 size=       0KiB time=00:00:00.53 bitrate=   0.7kbits/s speed=0.00843x elapsed=0:01:03.24    \nframe=   18 fps=0.3 q=45.2 size=       0KiB time=00:00:00.53 bitrate=   0.7kbits/s speed=0.00836x elapsed=0:01:03.78    \nframe=   18 fps=0.3 q=45.2 size=       0KiB time=00:00:00.53 bitrate=   0.7kbits/s speed=0.00829x elapsed=0:01:04.32    \nframe=   19 fps=0.3 q=45.6 size=       0KiB time=00:00:00.56 bitrate=   0.6kbits/s speed=0.00874x elapsed=0:01:04.87    \nframe=   19 fps=0.3 q=45.6 size=       0KiB time=00:00:00.56 bitrate=   0.6kbits/s speed=0.00867x elapsed=0:01:05.39    \nframe=   19 fps=0.3 q=45.6 size=       0KiB time=00:00:00.56 bitrate=   0.6kbits/s speed=0.0086x elapsed=0:01:05.91    \nframe=   19 fps=0.3 q=45.6 size=       0KiB time=00:00:00.56 bitrate=   0.6kbits/s speed=0.00853x elapsed=0:01:06.45    \nframe=   19 fps=0.3 q=45.6 size=       0KiB time=00:00:00.56 bitrate=   0.6kbits/s speed=0.00846x elapsed=0:01:06.98    \nframe=   19 fps=0.3 q=45.6 size=       0KiB time=00:00:00.56 bitrate=   0.6kbits/s speed=0.00839x elapsed=0:01:07.50    \nframe=   19 fps=0.3 q=45.6 size=       0KiB time=00:00:00.56 bitrate=   0.6kbits/s speed=0.00833x elapsed=0:01:08.03    \nframe=   20 fps=0.3 q=43.1 size=       0KiB time=00:00:00.60 bitrate=   0.6kbits/s speed=0.00875x elapsed=0:01:08.55    \nframe=   20 fps=0.3 q=43.1 size=       0KiB time=00:00:00.60 bitrate=   0.6kbits/s speed=0.00869x elapsed=0:01:09.06    \nframe=   20 fps=0.3 q=43.1 size=       0KiB time=00:00:00.60 bitrate=   0.6kbits/s speed=0.00862x elapsed=0:01:09.58    \nframe=   20 fps=0.3 q=43.1 size=       0KiB time=00:00:00.60 bitrate=   0.6kbits/s speed=0.00856x elapsed=0:01:10.11    \nframe=   20 fps=0.3 q=43.1 size=       0KiB time=00:00:00.60 bitrate=   0.6kbits/s speed=0.00849x elapsed=0:01:10.64    \nframe=   20 fps=0.3 q=43.1 size=       0KiB time=00:00:00.60 bitrate=   0.6kbits/s speed=0.00843x elapsed=0:01:11.16    \nframe=   21 fps=0.3 q=45.5 size=     256KiB time=00:00:00.63 bitrate=3311.9kbits/s speed=0.00884x elapsed=0:01:11.67    \nframe=   21 fps=0.3 q=45.5 size=     256KiB time=00:00:00.63 bitrate=3311.9kbits/s speed=0.00877x elapsed=0:01:12.21    \nframe=   21 fps=0.3 q=45.5 size=     256KiB time=00:00:00.63 bitrate=3311.9kbits/s speed=0.00871x elapsed=0:01:12.73    \nframe=   21 fps=0.3 q=45.5 size=     256KiB time=00:00:00.63 bitrate=3311.9kbits/s speed=0.00864x elapsed=0:01:13.27    \nframe=   21 fps=0.3 q=45.5 size=     256KiB time=00:00:00.63 bitrate=3311.9kbits/s speed=0.00858x elapsed=0:01:13.79    \nframe=   21 fps=0.3 q=45.5 size=     256KiB time=00:00:00.63 bitrate=3311.9kbits/s speed=0.00852x elapsed=0:01:14.32    \nframe=   22 fps=0.3 q=46.6 size=     256KiB time=00:00:00.66 bitrate=3146.3kbits/s speed=0.00891x elapsed=0:01:14.84    \nframe=   22 fps=0.3 q=46.6 size=     256KiB time=00:00:00.66 bitrate=3146.3kbits/s speed=0.00885x elapsed=0:01:15.35    \nframe=   22 fps=0.3 q=46.6 size=     256KiB time=00:00:00.66 bitrate=3146.3kbits/s speed=0.00879x elapsed=0:01:15.86    \nframe=   22 fps=0.3 q=46.6 size=     256KiB time=00:00:00.66 bitrate=3146.3kbits/s speed=0.00873x elapsed=0:01:16.39    \nframe=   22 fps=0.3 q=46.6 size=     256KiB time=00:00:00.66 bitrate=3146.3kbits/s speed=0.00867x elapsed=0:01:16.90    \nframe=   22 fps=0.3 q=46.6 size=     256KiB time=00:00:00.66 bitrate=3146.3kbits/s speed=0.00861x elapsed=0:01:17.41    \nframe=   22 fps=0.3 q=46.6 size=     256KiB time=00:00:00.66 bitrate=3146.3kbits/s speed=0.00855x elapsed=0:01:17.93    \nframe=   22 fps=0.3 q=46.6 size=     256KiB time=00:00:00.66 bitrate=3146.3kbits/s speed=0.0085x elapsed=0:01:18.46    \nframe=   23 fps=0.3 q=46.4 size=     256KiB time=00:00:00.70 bitrate=2996.4kbits/s speed=0.00886x elapsed=0:01:18.97    \nframe=   23 fps=0.3 q=46.4 size=     256KiB time=00:00:00.70 bitrate=2996.4kbits/s speed=0.0088x elapsed=0:01:19.50    \nframe=   23 fps=0.3 q=46.4 size=     256KiB time=00:00:00.70 bitrate=2996.4kbits/s speed=0.00875x elapsed=0:01:20.02    \nframe=   23 fps=0.3 q=46.4 size=     256KiB time=00:00:00.70 bitrate=2996.4kbits/s speed=0.00869x elapsed=0:01:20.53    \nframe=   23 fps=0.3 q=46.4 size=     256KiB time=00:00:00.70 bitrate=2996.4kbits/s speed=0.00864x elapsed=0:01:21.05    \nframe=   23 fps=0.3 q=46.4 size=     256KiB time=00:00:00.70 bitrate=2996.4kbits/s speed=0.00858x elapsed=0:01:21.58    \nframe=   24 fps=0.3 q=43.3 size=     256KiB time=00:00:00.73 bitrate=2860.2kbits/s speed=0.00893x elapsed=0:01:22.11    \nframe=   24 fps=0.3 q=43.3 size=     256KiB time=00:00:00.73 bitrate=2860.2kbits/s speed=0.00887x elapsed=0:01:22.64    \nframe=   24 fps=0.3 q=43.3 size=     256KiB time=00:00:00.73 bitrate=2860.2kbits/s speed=0.00882x elapsed=0:01:23.16    \nframe=   24 fps=0.3 q=43.3 size=     256KiB time=00:00:00.73 bitrate=2860.2kbits/s speed=0.00876x elapsed=0:01:23.69    \nframe=   24 fps=0.3 q=43.3 size=     256KiB time=00:00:00.73 bitrate=2860.2kbits/s speed=0.00871x elapsed=0:01:24.21    \nframe=   24 fps=0.3 q=43.3 size=     256KiB time=00:00:00.73 bitrate=2860.2kbits/s speed=0.00865x elapsed=0:01:24.74    \nframe=   25 fps=0.3 q=45.4 size=     256KiB time=00:00:00.76 bitrate=2735.9kbits/s speed=0.00899x elapsed=0:01:25.26    \nframe=   25 fps=0.3 q=45.4 size=     256KiB time=00:00:00.76 bitrate=2735.9kbits/s speed=0.00894x elapsed=0:01:25.79    \nframe=   25 fps=0.3 q=45.4 size=     256KiB time=00:00:00.76 bitrate=2735.9kbits/s speed=0.00888x elapsed=0:01:26.32    \nframe=   25 fps=0.3 q=45.4 size=     256KiB time=00:00:00.76 bitrate=2735.9kbits/s speed=0.00883x elapsed=0:01:26.86    \nframe=   25 fps=0.3 q=45.4 size=     256KiB time=00:00:00.76 bitrate=2735.9kbits/s speed=0.00877x elapsed=0:01:27.38    \nframe=   25 fps=0.3 q=45.4 size=     256KiB time=00:00:00.76 bitrate=2735.9kbits/s speed=0.00872x elapsed=0:01:27.91    \nframe=   26 fps=0.3 q=46.4 size=     256KiB time=00:00:00.80 bitrate=2621.9kbits/s speed=0.00904x elapsed=0:01:28.46    \nframe=   26 fps=0.3 q=46.4 size=     256KiB time=00:00:00.80 bitrate=2621.9kbits/s speed=0.00899x elapsed=0:01:28.99    \nframe=   26 fps=0.3 q=46.4 size=     256KiB time=00:00:00.80 bitrate=2621.9kbits/s speed=0.00894x elapsed=0:01:29.50    \nframe=   26 fps=0.3 q=46.4 size=     256KiB time=00:00:00.80 bitrate=2621.9kbits/s speed=0.00888x elapsed=0:01:30.04    \nframe=   27 fps=0.3 q=46.7 size=     256KiB time=00:00:00.83 bitrate=2517.0kbits/s speed=0.0092x elapsed=0:01:30.59    \nframe=   27 fps=0.3 q=46.7 size=     256KiB time=00:00:00.83 bitrate=2517.0kbits/s speed=0.00914x elapsed=0:01:31.17    \nframe=   27 fps=0.3 q=46.7 size=     256KiB time=00:00:00.83 bitrate=2517.0kbits/s speed=0.00909x elapsed=0:01:31.71    \nframe=   27 fps=0.3 q=46.7 size=     256KiB time=00:00:00.83 bitrate=2517.0kbits/s speed=0.00904x elapsed=0:01:32.22    \nframe=   27 fps=0.3 q=46.7 size=     256KiB time=00:00:00.83 bitrate=2517.0kbits/s speed=0.00899x elapsed=0:01:32.74    \nframe=   27 fps=0.3 q=46.7 size=     256KiB time=00:00:00.83 bitrate=2517.0kbits/s speed=0.00894x elapsed=0:01:33.25    \nframe=   28 fps=0.3 q=43.6 size=     256KiB time=00:00:00.86 bitrate=2420.2kbits/s speed=0.00924x elapsed=0:01:33.77    \nframe=   28 fps=0.3 q=43.6 size=     256KiB time=00:00:00.86 bitrate=2420.2kbits/s speed=0.00919x elapsed=0:01:34.30    \nframe=   28 fps=0.3 q=43.6 size=     256KiB time=00:00:00.86 bitrate=2420.2kbits/s speed=0.00914x elapsed=0:01:34.83    \nframe=   28 fps=0.3 q=43.6 size=     256KiB time=00:00:00.86 bitrate=2420.2kbits/s speed=0.00909x elapsed=0:01:35.38    \nframe=   28 fps=0.3 q=43.6 size=     256KiB time=00:00:00.86 bitrate=2420.2kbits/s speed=0.00904x elapsed=0:01:35.90    \nframe=   28 fps=0.3 q=43.6 size=     256KiB time=00:00:00.86 bitrate=2420.2kbits/s speed=0.00899x elapsed=0:01:36.42    \nframe=   28 fps=0.3 q=43.6 size=     256KiB time=00:00:00.86 bitrate=2420.2kbits/s speed=0.00894x elapsed=0:01:36.98    \nframe=   29 fps=0.3 q=45.6 size=     256KiB time=00:00:00.90 bitrate=2330.6kbits/s speed=0.00923x elapsed=0:01:37.50    \nframe=   29 fps=0.3 q=45.6 size=     256KiB time=00:00:00.90 bitrate=2330.6kbits/s speed=0.00918x elapsed=0:01:38.02    \nframe=   29 fps=0.3 q=45.6 size=     256KiB time=00:00:00.90 bitrate=2330.6kbits/s speed=0.00913x elapsed=0:01:38.55    \nframe=   29 fps=0.3 q=45.6 size=     256KiB time=00:00:00.90 bitrate=2330.6kbits/s speed=0.00908x elapsed=0:01:39.12    \nframe=   29 fps=0.3 q=45.6 size=     256KiB time=00:00:00.90 bitrate=2330.6kbits/s speed=0.00903x elapsed=0:01:39.69    \nframe=   29 fps=0.3 q=45.6 size=     256KiB time=00:00:00.90 bitrate=2330.6kbits/s speed=0.00898x elapsed=0:01:40.25    \nframe=   29 fps=0.3 q=45.6 size=     256KiB time=00:00:00.90 bitrate=2330.6kbits/s speed=0.00893x elapsed=0:01:40.80    \nframe=   29 fps=0.3 q=45.6 size=     256KiB time=00:00:00.90 bitrate=2330.6kbits/s speed=0.00888x elapsed=0:01:41.33    \nframe=   30 fps=0.3 q=46.3 size=     256KiB time=00:00:00.93 bitrate=2247.3kbits/s speed=0.00916x elapsed=0:01:41.88    \nframe=   30 fps=0.3 q=46.3 size=     256KiB time=00:00:00.93 bitrate=2247.3kbits/s speed=0.00911x elapsed=0:01:42.43    \nframe=   30 fps=0.3 q=46.3 size=     256KiB time=00:00:00.93 bitrate=2247.3kbits/s speed=0.00906x elapsed=0:01:43.04    \nframe=   30 fps=0.3 q=46.3 size=     256KiB time=00:00:00.93 bitrate=2247.3kbits/s speed=0.00901x elapsed=0:01:43.60    \nframe=   30 fps=0.3 q=46.3 size=     256KiB time=00:00:00.93 bitrate=2247.3kbits/s speed=0.00895x elapsed=0:01:44.26    \nframe=   30 fps=0.3 q=46.3 size=     256KiB time=00:00:00.93 bitrate=2247.3kbits/s speed=0.0089x elapsed=0:01:44.81    \nframe=   30 fps=0.3 q=46.3 size=     256KiB time=00:00:00.93 bitrate=2247.3kbits/s speed=0.00885x elapsed=0:01:45.42    \nframe=   30 fps=0.3 q=46.3 size=     256KiB time=00:00:00.93 bitrate=2247.3kbits/s speed=0.0088x elapsed=0:01:46.01    \nframe=   30 fps=0.3 q=46.3 size=     256KiB time=00:00:00.93 bitrate=2247.3kbits/s speed=0.00876x elapsed=0:01:46.59    \nframe=   30 fps=0.3 q=46.3 size=     256KiB time=00:00:00.93 bitrate=2247.3kbits/s speed=0.00871x elapsed=0:01:47.13    \nframe=   30 fps=0.3 q=46.3 size=     256KiB time=00:00:00.93 bitrate=2247.3kbits/s speed=0.00867x elapsed=0:01:47.68    \nframe=   30 fps=0.3 q=46.3 size=     256KiB time=00:00:00.93 bitrate=2247.3kbits/s speed=0.00863x elapsed=0:01:48.21    \nframe=   30 fps=0.3 q=46.3 size=     256KiB time=00:00:00.93 bitrate=2247.3kbits/s speed=0.00858x elapsed=0:01:48.77    \nframe=   30 fps=0.3 q=46.3 size=     256KiB time=00:00:00.93 bitrate=2247.3kbits/s speed=0.00853x elapsed=0:01:49.35    \nframe=   30 fps=0.3 q=46.3 size=     256KiB time=00:00:00.93 bitrate=2247.3kbits/s speed=0.00849x elapsed=0:01:49.94    \nframe=   30 fps=0.3 q=46.3 size=     256KiB time=00:00:00.93 bitrate=2247.3kbits/s speed=0.00845x elapsed=0:01:50.47    \nframe=   31 fps=0.3 q=46.6 size=     256KiB time=00:00:00.96 bitrate=2169.8kbits/s speed=0.00871x elapsed=0:01:51.02    \nframe=   31 fps=0.3 q=46.6 size=     256KiB time=00:00:00.96 bitrate=2169.8kbits/s speed=0.00866x elapsed=0:01:51.57    \nframe=   31 fps=0.3 q=46.6 size=     256KiB time=00:00:00.96 bitrate=2169.8kbits/s speed=0.00862x elapsed=0:01:52.09    \nframe=   31 fps=0.3 q=46.6 size=     256KiB time=00:00:00.96 bitrate=2169.8kbits/s speed=0.00858x elapsed=0:01:52.60    \nframe=   31 fps=0.3 q=46.6 size=     256KiB time=00:00:00.96 bitrate=2169.8kbits/s speed=0.00855x elapsed=0:01:53.12    \nframe=   32 fps=0.3 q=46.6 size=     256KiB time=00:00:01.00 bitrate=2097.5kbits/s speed=0.0088x elapsed=0:01:53.63    \nframe=   32 fps=0.3 q=46.6 size=     256KiB time=00:00:01.00 bitrate=2097.5kbits/s speed=0.00876x elapsed=0:01:54.17    \nframe=   32 fps=0.3 q=46.6 size=     256KiB time=00:00:01.00 bitrate=2097.5kbits/s speed=0.00872x elapsed=0:01:54.70    \nframe=   33 fps=0.3 q=43.8 size=     256KiB time=00:00:01.03 bitrate=2029.8kbits/s speed=0.00897x elapsed=0:01:55.20    \nframe=   33 fps=0.3 q=43.8 size=     256KiB time=00:00:01.03 bitrate=2029.8kbits/s speed=0.00893x elapsed=0:01:55.74    \nframe=   33 fps=0.3 q=43.8 size=     256KiB time=00:00:01.03 bitrate=2029.8kbits/s speed=0.00889x elapsed=0:01:56.28    \nframe=   33 fps=0.3 q=43.8 size=     256KiB time=00:00:01.03 bitrate=2029.8kbits/s speed=0.00885x elapsed=0:01:56.80    \nframe=   33 fps=0.3 q=43.8 size=     256KiB time=00:00:01.03 bitrate=2029.8kbits/s speed=0.00881x elapsed=0:01:57.32    \nframe=   33 fps=0.3 q=43.8 size=     256KiB time=00:00:01.03 bitrate=2029.8kbits/s speed=0.00877x elapsed=0:01:57.84    \nframe=   34 fps=0.3 q=45.2 size=     256KiB time=00:00:01.06 bitrate=1966.4kbits/s speed=0.00901x elapsed=0:01:58.39    \nframe=   34 fps=0.3 q=45.2 size=     256KiB time=00:00:01.06 bitrate=1966.4kbits/s speed=0.00897x elapsed=0:01:58.92    \nframe=   34 fps=0.3 q=45.2 size=     256KiB time=00:00:01.06 bitrate=1966.4kbits/s speed=0.00893x elapsed=0:01:59.44    \nframe=   34 fps=0.3 q=45.2 size=     256KiB time=00:00:01.06 bitrate=1966.4kbits/s speed=0.00889x elapsed=0:01:59.96    \nframe=   34 fps=0.3 q=45.2 size=     256KiB time=00:00:01.06 bitrate=1966.4kbits/s speed=0.00885x elapsed=0:02:00.50    \nframe=   34 fps=0.3 q=45.2 size=     256KiB time=00:00:01.06 bitrate=1966.4kbits/s speed=0.00881x elapsed=0:02:01.03    \nframe=   34 fps=0.3 q=45.2 size=     256KiB time=00:00:01.06 bitrate=1966.4kbits/s speed=0.00877x elapsed=0:02:01.56    \nframe=   34 fps=0.3 q=45.2 size=     256KiB time=00:00:01.06 bitrate=1966.4kbits/s speed=0.00874x elapsed=0:02:02.10    \nframe=   35 fps=0.3 q=46.4 size=     256KiB time=00:00:01.10 bitrate=1906.8kbits/s speed=0.00897x elapsed=0:02:02.61    \nframe=   35 fps=0.3 q=46.4 size=     256KiB time=00:00:01.10 bitrate=1906.8kbits/s speed=0.00893x elapsed=0:02:03.13    \nframe=   35 fps=0.3 q=46.4 size=     256KiB time=00:00:01.10 bitrate=1906.8kbits/s speed=0.0089x elapsed=0:02:03.66    \nframe=   35 fps=0.3 q=46.4 size=     256KiB time=00:00:01.10 bitrate=1906.8kbits/s speed=0.00886x elapsed=0:02:04.18    \nframe=   35 fps=0.3 q=46.4 size=     256KiB time=00:00:01.10 bitrate=1906.8kbits/s speed=0.00882x elapsed=0:02:04.69    \nframe=   36 fps=0.3 q=46.9 size=     256KiB time=00:00:01.13 bitrate=1850.7kbits/s speed=0.00905x elapsed=0:02:05.22    \nframe=   36 fps=0.3 q=46.9 size=     256KiB time=00:00:01.13 bitrate=1850.7kbits/s speed=0.00901x elapsed=0:02:05.74    \nframe=   36 fps=0.3 q=46.9 size=     256KiB time=00:00:01.13 bitrate=1850.7kbits/s speed=0.00897x elapsed=0:02:06.28    \nframe=   36 fps=0.3 q=46.9 size=     256KiB time=00:00:01.13 bitrate=1850.7kbits/s speed=0.00893x elapsed=0:02:06.90    \nframe=   36 fps=0.3 q=46.9 size=     256KiB time=00:00:01.13 bitrate=1850.7kbits/s speed=0.00888x elapsed=0:02:07.57    \nframe=   36 fps=0.3 q=46.9 size=     256KiB time=00:00:01.13 bitrate=1850.7kbits/s speed=0.00884x elapsed=0:02:08.21    \nframe=   36 fps=0.3 q=46.9 size=     256KiB time=00:00:01.13 bitrate=1850.7kbits/s speed=0.0088x elapsed=0:02:08.81    \nframe=   36 fps=0.3 q=46.9 size=     256KiB time=00:00:01.13 bitrate=1850.7kbits/s speed=0.00876x elapsed=0:02:09.38    \nframe=   36 fps=0.3 q=46.9 size=     256KiB time=00:00:01.13 bitrate=1850.7kbits/s speed=0.00872x elapsed=0:02:09.91    \nframe=   36 fps=0.3 q=46.9 size=     256KiB time=00:00:01.13 bitrate=1850.7kbits/s speed=0.00869x elapsed=0:02:10.43    \nframe=   36 fps=0.3 q=46.9 size=     256KiB time=00:00:01.13 bitrate=1850.7kbits/s speed=0.00865x elapsed=0:02:10.98    \nframe=   36 fps=0.3 q=46.9 size=     256KiB time=00:00:01.13 bitrate=1850.7kbits/s speed=0.00862x elapsed=0:02:11.50    \nframe=   37 fps=0.3 q=46.6 size=     256KiB time=00:00:01.16 bitrate=1797.9kbits/s speed=0.00884x elapsed=0:02:12.04    \nframe=   37 fps=0.3 q=46.6 size=     256KiB time=00:00:01.16 bitrate=1797.9kbits/s speed=0.0088x elapsed=0:02:12.61    \nframe=   37 fps=0.3 q=46.6 size=     256KiB time=00:00:01.16 bitrate=1797.9kbits/s speed=0.00876x elapsed=0:02:13.16    \nframe=   37 fps=0.3 q=46.6 size=     256KiB time=00:00:01.16 bitrate=1797.9kbits/s speed=0.00873x elapsed=0:02:13.68    \nframe=   37 fps=0.3 q=46.6 size=     256KiB time=00:00:01.16 bitrate=1797.9kbits/s speed=0.00869x elapsed=0:02:14.20    \nframe=   37 fps=0.3 q=46.6 size=     256KiB time=00:00:01.16 bitrate=1797.9kbits/s speed=0.00866x elapsed=0:02:14.76    \nframe=   37 fps=0.3 q=46.6 size=     256KiB time=00:00:01.16 bitrate=1797.9kbits/s speed=0.00862x elapsed=0:02:15.31    \nframe=   37 fps=0.3 q=46.6 size=     256KiB time=00:00:01.16 bitrate=1797.9kbits/s speed=0.00859x elapsed=0:02:15.86    \nframe=   37 fps=0.3 q=46.6 size=     256KiB time=00:00:01.16 bitrate=1797.9kbits/s speed=0.00855x elapsed=0:02:16.40    \nframe=   37 fps=0.3 q=46.6 size=     256KiB time=00:00:01.16 bitrate=1797.9kbits/s speed=0.00852x elapsed=0:02:16.94    \nframe=   37 fps=0.3 q=46.6 size=     256KiB time=00:00:01.16 bitrate=1797.9kbits/s speed=0.00849x elapsed=0:02:17.48    \nframe=   38 fps=0.3 q=44.0 size=     256KiB time=00:00:01.20 bitrate=1747.9kbits/s speed=0.0087x elapsed=0:02:17.99    \nframe=   38 fps=0.3 q=44.0 size=     256KiB time=00:00:01.20 bitrate=1747.9kbits/s speed=0.00866x elapsed=0:02:18.53    \nframe=   38 fps=0.3 q=44.0 size=     256KiB time=00:00:01.20 bitrate=1747.9kbits/s speed=0.00863x elapsed=0:02:19.06    \nframe=   38 fps=0.3 q=44.0 size=     256KiB time=00:00:01.20 bitrate=1747.9kbits/s speed=0.0086x elapsed=0:02:19.59    \nframe=   38 fps=0.3 q=44.0 size=     256KiB time=00:00:01.20 bitrate=1747.9kbits/s speed=0.00856x elapsed=0:02:20.13    \nframe=   38 fps=0.3 q=44.0 size=     256KiB time=00:00:01.20 bitrate=1747.9kbits/s speed=0.00853x elapsed=0:02:20.67    \nframe=   38 fps=0.3 q=44.0 size=     256KiB time=00:00:01.20 bitrate=1747.9kbits/s speed=0.0085x elapsed=0:02:21.19    \nframe=   38 fps=0.3 q=44.0 size=     256KiB time=00:00:01.20 bitrate=1747.9kbits/s speed=0.00847x elapsed=0:02:21.71    \nframe=   38 fps=0.3 q=44.0 size=     256KiB time=00:00:01.20 bitrate=1747.9kbits/s speed=0.00844x elapsed=0:02:22.25    \nframe=   38 fps=0.3 q=44.0 size=     256KiB time=00:00:01.20 bitrate=1747.9kbits/s speed=0.0084x elapsed=0:02:22.79    \nframe=   39 fps=0.3 q=45.2 size=     256KiB time=00:00:01.23 bitrate=1700.7kbits/s speed=0.0086x elapsed=0:02:23.36    \nframe=   39 fps=0.3 q=45.2 size=     256KiB time=00:00:01.23 bitrate=1700.7kbits/s speed=0.00857x elapsed=0:02:23.91    \nframe=   39 fps=0.3 q=45.2 size=     256KiB time=00:00:01.23 bitrate=1700.7kbits/s speed=0.00854x elapsed=0:02:24.46    \nframe=   39 fps=0.3 q=45.2 size=     256KiB time=00:00:01.23 bitrate=1700.7kbits/s speed=0.00851x elapsed=0:02:25.01    \nframe=   39 fps=0.3 q=45.2 size=     256KiB time=00:00:01.23 bitrate=1700.7kbits/s speed=0.00847x elapsed=0:02:25.54    \nframe=   39 fps=0.3 q=45.2 size=     256KiB time=00:00:01.23 bitrate=1700.7kbits/s speed=0.00844x elapsed=0:02:26.09    \nframe=   39 fps=0.3 q=45.2 size=     256KiB time=00:00:01.23 bitrate=1700.7kbits/s speed=0.00841x elapsed=0:02:26.60    \nframe=   39 fps=0.3 q=45.2 size=     256KiB time=00:00:01.23 bitrate=1700.7kbits/s speed=0.00838x elapsed=0:02:27.13    \nframe=   40 fps=0.3 q=46.9 size=     512KiB time=00:00:01.26 bitrate=3311.6kbits/s speed=0.00858x elapsed=0:02:27.65    \nframe=   40 fps=0.3 q=46.9 size=     512KiB time=00:00:01.26 bitrate=3311.6kbits/s speed=0.00854x elapsed=0:02:28.23    \nframe=   40 fps=0.3 q=46.9 size=     512KiB time=00:00:01.26 bitrate=3311.6kbits/s speed=0.00851x elapsed=0:02:28.84    \nframe=   40 fps=0.3 q=46.9 size=     512KiB time=00:00:01.26 bitrate=3311.6kbits/s speed=0.00848x elapsed=0:02:29.44    \nframe=   40 fps=0.3 q=46.9 size=     512KiB time=00:00:01.26 bitrate=3311.6kbits/s speed=0.00844x elapsed=0:02:30.05    \nframe=   40 fps=0.3 q=46.9 size=     512KiB time=00:00:01.26 bitrate=3311.6kbits/s speed=0.00841x elapsed=0:02:30.68    \nframe=   40 fps=0.3 q=46.9 size=     512KiB time=00:00:01.26 bitrate=3311.6kbits/s speed=0.00837x elapsed=0:02:31.29    \nframe=   40 fps=0.3 q=46.9 size=     512KiB time=00:00:01.26 bitrate=3311.6kbits/s speed=0.00834x elapsed=0:02:31.94    \nframe=   40 fps=0.3 q=46.9 size=     512KiB time=00:00:01.26 bitrate=3311.6kbits/s speed=0.0083x elapsed=0:02:32.57    \nframe=   40 fps=0.3 q=46.9 size=     512KiB time=00:00:01.26 bitrate=3311.6kbits/s speed=0.00827x elapsed=0:02:33.14    \nframe=   40 fps=0.3 q=46.9 size=     512KiB time=00:00:01.26 bitrate=3311.6kbits/s speed=0.00824x elapsed=0:02:33.70    \nframe=   40 fps=0.3 q=46.9 size=     512KiB time=00:00:01.26 bitrate=3311.6kbits/s speed=0.00821x elapsed=0:02:34.31    \nframe=   40 fps=0.3 q=46.9 size=     512KiB time=00:00:01.26 bitrate=3311.6kbits/s speed=0.00818x elapsed=0:02:34.89    \nframe=   40 fps=0.3 q=46.9 size=     512KiB time=00:00:01.26 bitrate=3311.6kbits/s speed=0.00815x elapsed=0:02:35.50    \nframe=   40 fps=0.3 q=46.9 size=     512KiB time=00:00:01.26 bitrate=3311.6kbits/s speed=0.00812x elapsed=0:02:36.06    \nframe=   40 fps=0.3 q=46.9 size=     512KiB time=00:00:01.26 bitrate=3311.6kbits/s speed=0.00809x elapsed=0:02:36.61    \nframe=   41 fps=0.3 q=46.6 size=     512KiB time=00:00:01.30 bitrate=3226.7kbits/s speed=0.00827x elapsed=0:02:37.16    \nframe=   41 fps=0.3 q=46.6 size=     512KiB time=00:00:01.30 bitrate=3226.7kbits/s speed=0.00824x elapsed=0:02:37.77    \nframe=   41 fps=0.3 q=46.6 size=     512KiB time=00:00:01.30 bitrate=3226.7kbits/s speed=0.00821x elapsed=0:02:38.42    \nframe=   41 fps=0.3 q=46.6 size=     512KiB time=00:00:01.30 bitrate=3226.7kbits/s speed=0.00818x elapsed=0:02:39.00    \nframe=   41 fps=0.3 q=46.6 size=     512KiB time=00:00:01.30 bitrate=3226.7kbits/s speed=0.00815x elapsed=0:02:39.56    \nframe=   41 fps=0.3 q=46.6 size=     512KiB time=00:00:01.30 bitrate=3226.7kbits/s speed=0.00812x elapsed=0:02:40.12    \nframe=   41 fps=0.3 q=46.6 size=     512KiB time=00:00:01.30 bitrate=3226.7kbits/s speed=0.00809x elapsed=0:02:40.69    \nframe=   41 fps=0.3 q=46.6 size=     512KiB time=00:00:01.30 bitrate=3226.7kbits/s speed=0.00806x elapsed=0:02:41.25    \nframe=   41 fps=0.3 q=46.6 size=     512KiB time=00:00:01.30 bitrate=3226.7kbits/s speed=0.00804x elapsed=0:02:41.79    \nframe=   42 fps=0.3 q=46.8 size=     512KiB time=00:00:01.33 bitrate=3146.0kbits/s speed=0.00821x elapsed=0:02:42.32    \nframe=   42 fps=0.3 q=46.8 size=     512KiB time=00:00:01.33 bitrate=3146.0kbits/s speed=0.00819x elapsed=0:02:42.85    \nframe=   42 fps=0.3 q=46.8 size=     512KiB time=00:00:01.33 bitrate=3146.0kbits/s speed=0.00816x elapsed=0:02:43.37    \nframe=   42 fps=0.3 q=46.8 size=     512KiB time=00:00:01.33 bitrate=3146.0kbits/s speed=0.00813x elapsed=0:02:43.95    \nframe=   42 fps=0.3 q=46.8 size=     512KiB time=00:00:01.33 bitrate=3146.0kbits/s speed=0.0081x elapsed=0:02:44.53    \nframe=   42 fps=0.3 q=46.8 size=     512KiB time=00:00:01.33 bitrate=3146.0kbits/s speed=0.00808x elapsed=0:02:45.10    \nframe=   42 fps=0.3 q=46.8 size=     512KiB time=00:00:01.33 bitrate=3146.0kbits/s speed=0.00805x elapsed=0:02:45.66    \nframe=   43 fps=0.3 q=44.1 size=     512KiB time=00:00:01.36 bitrate=3069.3kbits/s speed=0.00822x elapsed=0:02:46.17    \nframe=   43 fps=0.3 q=44.1 size=     512KiB time=00:00:01.36 bitrate=3069.3kbits/s speed=0.0082x elapsed=0:02:46.71    \nframe=   43 fps=0.3 q=44.1 size=     512KiB time=00:00:01.36 bitrate=3069.3kbits/s speed=0.00817x elapsed=0:02:47.23    \nframe=   43 fps=0.3 q=44.1 size=     512KiB time=00:00:01.36 bitrate=3069.3kbits/s speed=0.00815x elapsed=0:02:47.76    \nframe=   43 fps=0.3 q=44.1 size=     512KiB time=00:00:01.36 bitrate=3069.3kbits/s speed=0.00812x elapsed=0:02:48.33    \nframe=   44 fps=0.3 q=45.2 size=     512KiB time=00:00:01.40 bitrate=2996.2kbits/s speed=0.00829x elapsed=0:02:48.93    \nframe=   44 fps=0.3 q=45.2 size=     512KiB time=00:00:01.40 bitrate=2996.2kbits/s speed=0.00826x elapsed=0:02:49.52    \nframe=   44 fps=0.3 q=45.2 size=     512KiB time=00:00:01.40 bitrate=2996.2kbits/s speed=0.00823x elapsed=0:02:50.07    \nframe=   44 fps=0.3 q=45.2 size=     512KiB time=00:00:01.40 bitrate=2996.2kbits/s speed=0.0082x elapsed=0:02:50.65    \nframe=   44 fps=0.3 q=45.2 size=     512KiB time=00:00:01.40 bitrate=2996.2kbits/s speed=0.00818x elapsed=0:02:51.20    \nframe=   44 fps=0.3 q=45.2 size=     512KiB time=00:00:01.40 bitrate=2996.2kbits/s speed=0.00815x elapsed=0:02:51.76    \nframe=   44 fps=0.3 q=45.2 size=     512KiB time=00:00:01.40 bitrate=2996.2kbits/s speed=0.00812x elapsed=0:02:52.31    \nframe=   44 fps=0.3 q=45.2 size=     512KiB time=00:00:01.40 bitrate=2996.2kbits/s speed=0.0081x elapsed=0:02:52.84    \nframe=   44 fps=0.3 q=45.2 size=     512KiB time=00:00:01.40 bitrate=2996.2kbits/s speed=0.00807x elapsed=0:02:53.41    \nframe=   44 fps=0.3 q=45.2 size=     512KiB time=00:00:01.40 bitrate=2996.2kbits/s speed=0.00805x elapsed=0:02:53.96    \nframe=   44 fps=0.3 q=45.2 size=     512KiB time=00:00:01.40 bitrate=2996.2kbits/s speed=0.00802x elapsed=0:02:54.51    \nframe=   44 fps=0.3 q=45.2 size=     512KiB time=00:00:01.40 bitrate=2996.2kbits/s speed=0.008x elapsed=0:02:55.08    \nframe=   44 fps=0.3 q=45.2 size=     512KiB time=00:00:01.40 bitrate=2996.2kbits/s speed=0.00797x elapsed=0:02:55.65    \nframe=   45 fps=0.3 q=46.7 size=     512KiB time=00:00:01.43 bitrate=2926.5kbits/s speed=0.00813x elapsed=0:02:56.19    \nframe=   45 fps=0.3 q=46.7 size=     512KiB time=00:00:01.43 bitrate=2926.5kbits/s speed=0.00811x elapsed=0:02:56.79    \nframe=   45 fps=0.3 q=46.7 size=     512KiB time=00:00:01.43 bitrate=2926.5kbits/s speed=0.00808x elapsed=0:02:57.38    \nframe=   45 fps=0.3 q=46.7 size=     512KiB time=00:00:01.43 bitrate=2926.5kbits/s speed=0.00805x elapsed=0:02:57.95    \nframe=   45 fps=0.3 q=46.7 size=     512KiB time=00:00:01.43 bitrate=2926.5kbits/s speed=0.00803x elapsed=0:02:58.49    \nframe=   45 fps=0.3 q=46.7 size=     512KiB time=00:00:01.43 bitrate=2926.5kbits/s speed=0.00801x elapsed=0:02:59.04    \nframe=   45 fps=0.3 q=46.7 size=     512KiB time=00:00:01.43 bitrate=2926.5kbits/s speed=0.00798x elapsed=0:02:59.62    \nframe=   45 fps=0.2 q=46.7 size=     512KiB time=00:00:01.43 bitrate=2926.5kbits/s speed=0.00796x elapsed=0:03:00.16    \nframe=   45 fps=0.2 q=46.7 size=     512KiB time=00:00:01.43 bitrate=2926.5kbits/s speed=0.00793x elapsed=0:03:00.68    \nframe=   45 fps=0.2 q=46.7 size=     512KiB time=00:00:01.43 bitrate=2926.5kbits/s speed=0.00791x elapsed=0:03:01.23    \nframe=   45 fps=0.2 q=46.7 size=     512KiB time=00:00:01.43 bitrate=2926.5kbits/s speed=0.00789x elapsed=0:03:01.75    \nframe=   45 fps=0.2 q=46.7 size=     512KiB time=00:00:01.43 bitrate=2926.5kbits/s speed=0.00786x elapsed=0:03:02.32    \nframe=   45 fps=0.2 q=46.7 size=     512KiB time=00:00:01.43 bitrate=2926.5kbits/s speed=0.00784x elapsed=0:03:02.86    \nframe=   45 fps=0.2 q=46.7 size=     512KiB time=00:00:01.43 bitrate=2926.5kbits/s speed=0.00781x elapsed=0:03:03.42    \nframe=   45 fps=0.2 q=46.7 size=     512KiB time=00:00:01.43 bitrate=2926.5kbits/s speed=0.00779x elapsed=0:03:03.97    \nframe=   46 fps=0.2 q=46.7 size=     512KiB time=00:00:01.46 bitrate=2860.0kbits/s speed=0.00795x elapsed=0:03:04.49    \nframe=   46 fps=0.2 q=46.7 size=     512KiB time=00:00:01.46 bitrate=2860.0kbits/s speed=0.00793x elapsed=0:03:05.01    \nframe=   46 fps=0.2 q=46.7 size=     512KiB time=00:00:01.46 bitrate=2860.0kbits/s speed=0.0079x elapsed=0:03:05.60    \nframe=   46 fps=0.2 q=46.7 size=     512KiB time=00:00:01.46 bitrate=2860.0kbits/s speed=0.00787x elapsed=0:03:06.26    \nframe=   46 fps=0.2 q=46.7 size=     512KiB time=00:00:01.46 bitrate=2860.0kbits/s speed=0.00785x elapsed=0:03:06.82    \nframe=   46 fps=0.2 q=46.7 size=     512KiB time=00:00:01.46 bitrate=2860.0kbits/s speed=0.00783x elapsed=0:03:07.37    \nframe=   46 fps=0.2 q=46.7 size=     512KiB time=00:00:01.46 bitrate=2860.0kbits/s speed=0.0078x elapsed=0:03:07.91    \nframe=   46 fps=0.2 q=46.7 size=     512KiB time=00:00:01.46 bitrate=2860.0kbits/s speed=0.00778x elapsed=0:03:08.46    \nframe=   47 fps=0.2 q=44.0 size=     512KiB time=00:00:01.50 bitrate=2796.4kbits/s speed=0.00794x elapsed=0:03:09.00    \nframe=   47 fps=0.2 q=44.0 size=     512KiB time=00:00:01.50 bitrate=2796.4kbits/s speed=0.00791x elapsed=0:03:09.54    \nframe=   47 fps=0.2 q=44.0 size=     512KiB time=00:00:01.50 bitrate=2796.4kbits/s speed=0.00789x elapsed=0:03:10.14    \nframe=   47 fps=0.2 q=44.0 size=     512KiB time=00:00:01.50 bitrate=2796.4kbits/s speed=0.00786x elapsed=0:03:10.71    \nframe=   47 fps=0.2 q=44.0 size=     512KiB time=00:00:01.50 bitrate=2796.4kbits/s speed=0.00784x elapsed=0:03:11.25    \nframe=   47 fps=0.2 q=44.0 size=     512KiB time=00:00:01.50 bitrate=2796.4kbits/s speed=0.00782x elapsed=0:03:11.78    \nframe=   47 fps=0.2 q=44.0 size=     512KiB time=00:00:01.50 bitrate=2796.4kbits/s speed=0.0078x elapsed=0:03:12.30    \nframe=   48 fps=0.2 q=45.1 size=     512KiB time=00:00:01.53 bitrate=2735.6kbits/s speed=0.00795x elapsed=0:03:12.83    \nframe=   48 fps=0.2 q=45.1 size=     512KiB time=00:00:01.53 bitrate=2735.6kbits/s speed=0.00793x elapsed=0:03:13.39    \nframe=   48 fps=0.2 q=45.1 size=     512KiB time=00:00:01.53 bitrate=2735.6kbits/s speed=0.00791x elapsed=0:03:13.95    \nframe=   48 fps=0.2 q=45.1 size=     512KiB time=00:00:01.53 bitrate=2735.6kbits/s speed=0.00788x elapsed=0:03:14.50    \nframe=   48 fps=0.2 q=45.1 size=     512KiB time=00:00:01.53 bitrate=2735.6kbits/s speed=0.00786x elapsed=0:03:15.09    \nframe=   48 fps=0.2 q=45.1 size=     512KiB time=00:00:01.53 bitrate=2735.6kbits/s speed=0.00784x elapsed=0:03:15.69    \nframe=   48 fps=0.2 q=45.1 size=     512KiB time=00:00:01.53 bitrate=2735.6kbits/s speed=0.00781x elapsed=0:03:16.24    \nframe=   48 fps=0.2 q=45.1 size=     512KiB time=00:00:01.53 bitrate=2735.6kbits/s speed=0.00779x elapsed=0:03:16.78    \nframe=   48 fps=0.2 q=45.1 size=     512KiB time=00:00:01.53 bitrate=2735.6kbits/s speed=0.00777x elapsed=0:03:17.32    \nframe=   48 fps=0.2 q=45.1 size=     512KiB time=00:00:01.53 bitrate=2735.6kbits/s speed=0.00775x elapsed=0:03:17.85    \nframe=   49 fps=0.2 q=46.6 size=     512KiB time=00:00:01.56 bitrate=2677.4kbits/s speed=0.0079x elapsed=0:03:18.40    \nframe=   49 fps=0.2 q=46.6 size=     512KiB time=00:00:01.56 bitrate=2677.4kbits/s speed=0.00788x elapsed=0:03:18.92    \nframe=   49 fps=0.2 q=46.6 size=     512KiB time=00:00:01.56 bitrate=2677.4kbits/s speed=0.00785x elapsed=0:03:19.45    \nframe=   49 fps=0.2 q=46.6 size=     512KiB time=00:00:01.56 bitrate=2677.4kbits/s speed=0.00783x elapsed=0:03:20.01    \nframe=   49 fps=0.2 q=46.6 size=     512KiB time=00:00:01.56 bitrate=2677.4kbits/s speed=0.00781x elapsed=0:03:20.53    \nframe=   49 fps=0.2 q=46.6 size=     512KiB time=00:00:01.56 bitrate=2677.4kbits/s speed=0.00779x elapsed=0:03:21.04    \nframe=   49 fps=0.2 q=46.6 size=     512KiB time=00:00:01.56 bitrate=2677.4kbits/s speed=0.00777x elapsed=0:03:21.55    \nframe=   49 fps=0.2 q=46.6 size=     512KiB time=00:00:01.56 bitrate=2677.4kbits/s speed=0.00775x elapsed=0:03:22.07    \nframe=   49 fps=0.2 q=46.6 size=     512KiB time=00:00:01.56 bitrate=2677.4kbits/s speed=0.00773x elapsed=0:03:22.60    \nframe=   50 fps=0.2 q=47.0 size=     512KiB time=00:00:01.60 bitrate=2621.7kbits/s speed=0.00788x elapsed=0:03:23.12    \nframe=   50 fps=0.2 q=47.0 size=     512KiB time=00:00:01.60 bitrate=2621.7kbits/s speed=0.00786x elapsed=0:03:23.63    \nframe=   50 fps=0.2 q=47.0 size=     512KiB time=00:00:01.60 bitrate=2621.7kbits/s speed=0.00784x elapsed=0:03:24.16    \nframe=   50 fps=0.2 q=47.0 size=     512KiB time=00:00:01.60 bitrate=2621.7kbits/s speed=0.00782x elapsed=0:03:24.67    \nframe=   50 fps=0.2 q=47.0 size=     512KiB time=00:00:01.60 bitrate=2621.7kbits/s speed=0.0078x elapsed=0:03:25.20    \nframe=   50 fps=0.2 q=47.0 size=     512KiB time=00:00:01.60 bitrate=2621.7kbits/s speed=0.00778x elapsed=0:03:25.72    \nframe=   51 fps=0.2 q=46.5 size=     512KiB time=00:00:01.63 bitrate=2568.2kbits/s speed=0.00792x elapsed=0:03:26.23    \nframe=   51 fps=0.2 q=46.5 size=     512KiB time=00:00:01.63 bitrate=2568.2kbits/s speed=0.0079x elapsed=0:03:26.78    \nframe=   51 fps=0.2 q=46.5 size=     512KiB time=00:00:01.63 bitrate=2568.2kbits/s speed=0.00788x elapsed=0:03:27.31    \nframe=   51 fps=0.2 q=46.5 size=     512KiB time=00:00:01.63 bitrate=2568.2kbits/s speed=0.00786x elapsed=0:03:27.84    \nframe=   51 fps=0.2 q=46.5 size=     512KiB time=00:00:01.63 bitrate=2568.2kbits/s speed=0.00784x elapsed=0:03:28.35    \nframe=   51 fps=0.2 q=46.5 size=     512KiB time=00:00:01.63 bitrate=2568.2kbits/s speed=0.00782x elapsed=0:03:28.87    \nframe=   52 fps=0.2 q=44.1 size=     512KiB time=00:00:01.66 bitrate=2516.8kbits/s speed=0.00796x elapsed=0:03:29.41    \nframe=   52 fps=0.2 q=44.1 size=     512KiB time=00:00:01.66 bitrate=2516.8kbits/s speed=0.00794x elapsed=0:03:29.93    \nframe=   52 fps=0.2 q=44.1 size=     512KiB time=00:00:01.66 bitrate=2516.8kbits/s speed=0.00792x elapsed=0:03:30.46    \nframe=   52 fps=0.2 q=44.1 size=     512KiB time=00:00:01.66 bitrate=2516.8kbits/s speed=0.0079x elapsed=0:03:31.00    \nframe=   52 fps=0.2 q=44.1 size=     512KiB time=00:00:01.66 bitrate=2516.8kbits/s speed=0.00788x elapsed=0:03:31.52    \nframe=   52 fps=0.2 q=44.1 size=     512KiB time=00:00:01.66 bitrate=2516.8kbits/s speed=0.00786x elapsed=0:03:32.05    \nframe=   52 fps=0.2 q=44.1 size=     512KiB time=00:00:01.66 bitrate=2516.8kbits/s speed=0.00784x elapsed=0:03:32.57    \nframe=   53 fps=0.2 q=45.6 size=     512KiB time=00:00:01.70 bitrate=2467.4kbits/s speed=0.00798x elapsed=0:03:33.09    \nframe=   53 fps=0.2 q=45.6 size=     512KiB time=00:00:01.70 bitrate=2467.4kbits/s speed=0.00796x elapsed=0:03:33.62    \nframe=   53 fps=0.2 q=45.6 size=     512KiB time=00:00:01.70 bitrate=2467.4kbits/s speed=0.00794x elapsed=0:03:34.16    \nframe=   53 fps=0.2 q=45.6 size=     512KiB time=00:00:01.70 bitrate=2467.4kbits/s speed=0.00792x elapsed=0:03:34.68    \nframe=   54 fps=0.3 q=47.0 size=     512KiB time=00:00:01.73 bitrate=2420.0kbits/s speed=0.00805x elapsed=0:03:35.21    \nframe=   54 fps=0.3 q=47.0 size=     512KiB time=00:00:01.73 bitrate=2420.0kbits/s speed=0.00803x elapsed=0:03:35.72    \nframe=   54 fps=0.2 q=47.0 size=     512KiB time=00:00:01.73 bitrate=2420.0kbits/s speed=0.00802x elapsed=0:03:36.24    \nframe=   54 fps=0.2 q=47.0 size=     512KiB time=00:00:01.73 bitrate=2420.0kbits/s speed=0.008x elapsed=0:03:36.76    \nframe=   54 fps=0.2 q=47.0 size=     512KiB time=00:00:01.73 bitrate=2420.0kbits/s speed=0.00798x elapsed=0:03:37.28    \nframe=   54 fps=0.2 q=47.0 size=     512KiB time=00:00:01.73 bitrate=2420.0kbits/s speed=0.00796x elapsed=0:03:37.82    \nframe=   55 fps=0.3 q=46.9 size=     512KiB time=00:00:01.76 bitrate=2374.3kbits/s speed=0.00809x elapsed=0:03:38.34    \nframe=   55 fps=0.3 q=46.9 size=     512KiB time=00:00:01.76 bitrate=2374.3kbits/s speed=0.00807x elapsed=0:03:38.87    \nframe=   55 fps=0.3 q=46.9 size=     512KiB time=00:00:01.76 bitrate=2374.3kbits/s speed=0.00805x elapsed=0:03:39.40    \nframe=   55 fps=0.3 q=46.9 size=     512KiB time=00:00:01.76 bitrate=2374.3kbits/s speed=0.00803x elapsed=0:03:39.92    \nframe=   55 fps=0.2 q=46.9 size=     512KiB time=00:00:01.76 bitrate=2374.3kbits/s speed=0.00801x elapsed=0:03:40.44    \nframe=   56 fps=0.3 q=47.0 size=     512KiB time=00:00:01.80 bitrate=2330.4kbits/s speed=0.00815x elapsed=0:03:40.96    \nframe=   56 fps=0.3 q=47.0 size=     512KiB time=00:00:01.80 bitrate=2330.4kbits/s speed=0.00813x elapsed=0:03:41.48    \nframe=   56 fps=0.3 q=47.0 size=     512KiB time=00:00:01.80 bitrate=2330.4kbits/s speed=0.00811x elapsed=0:03:41.99    \nframe=   56 fps=0.3 q=47.0 size=     512KiB time=00:00:01.80 bitrate=2330.4kbits/s speed=0.00809x elapsed=0:03:42.51    \nframe=   56 fps=0.3 q=47.0 size=     512KiB time=00:00:01.80 bitrate=2330.4kbits/s speed=0.00807x elapsed=0:03:43.04    \nframe=   57 fps=0.3 q=44.1 size=     512KiB time=00:00:01.83 bitrate=2288.0kbits/s speed=0.0082x elapsed=0:03:43.56    \nframe=   57 fps=0.3 q=44.1 size=     512KiB time=00:00:01.83 bitrate=2288.0kbits/s speed=0.00818x elapsed=0:03:44.10    \nframe=   57 fps=0.3 q=44.1 size=     512KiB time=00:00:01.83 bitrate=2288.0kbits/s speed=0.00816x elapsed=0:03:44.62    \nframe=   57 fps=0.3 q=44.1 size=     512KiB time=00:00:01.83 bitrate=2288.0kbits/s speed=0.00814x elapsed=0:03:45.17    \nframe=   57 fps=0.3 q=44.1 size=     512KiB time=00:00:01.83 bitrate=2288.0kbits/s speed=0.00812x elapsed=0:03:45.69    \nframe=   58 fps=0.3 q=45.3 size=     512KiB time=00:00:01.86 bitrate=2247.1kbits/s speed=0.00825x elapsed=0:03:46.22    \nframe=   58 fps=0.3 q=45.3 size=     512KiB time=00:00:01.86 bitrate=2247.1kbits/s speed=0.00823x elapsed=0:03:46.75    \nframe=   58 fps=0.3 q=45.3 size=     512KiB time=00:00:01.86 bitrate=2247.1kbits/s speed=0.00821x elapsed=0:03:47.26    \nframe=   58 fps=0.3 q=45.3 size=     512KiB time=00:00:01.86 bitrate=2247.1kbits/s speed=0.00819x elapsed=0:03:47.80    \nframe=   59 fps=0.3 q=46.8 size=     512KiB time=00:00:01.90 bitrate=2207.7kbits/s speed=0.00832x elapsed=0:03:48.34    \nframe=   60 fps=0.3 q=46.8 size=     512KiB time=00:00:01.93 bitrate=2169.7kbits/s speed=0.00845x elapsed=0:03:48.89    \nframe=   60 fps=0.3 q=46.8 size=     512KiB time=00:00:01.93 bitrate=2169.7kbits/s speed=0.00843x elapsed=0:03:49.41    \nframe=   60 fps=0.3 q=46.8 size=     512KiB time=00:00:01.93 bitrate=2169.7kbits/s speed=0.00841x elapsed=0:03:49.93    \nframe=   60 fps=0.3 q=46.8 size=     512KiB time=00:00:01.93 bitrate=2169.7kbits/s speed=0.00839x elapsed=0:03:50.45    \nframe=   60 fps=0.3 q=46.8 size=     512KiB time=00:00:01.93 bitrate=2169.7kbits/s speed=0.00837x elapsed=0:03:50.98    \nframe=   60 fps=0.3 q=46.8 size=     512KiB time=00:00:01.93 bitrate=2169.7kbits/s speed=0.00835x elapsed=0:03:51.50    \nframe=   60 fps=0.3 q=46.8 size=     512KiB time=00:00:01.93 bitrate=2169.7kbits/s speed=0.00833x elapsed=0:03:52.04    \nframe=   60 fps=0.3 q=46.8 size=     512KiB time=00:00:01.93 bitrate=2169.7kbits/s speed=0.00831x elapsed=0:03:52.58    \nframe=   61 fps=0.3 q=47.0 size=     512KiB time=00:00:01.96 bitrate=2132.9kbits/s speed=0.00844x elapsed=0:03:53.09    \nframe=   61 fps=0.3 q=47.0 size=     512KiB time=00:00:01.96 bitrate=2132.9kbits/s speed=0.00842x elapsed=0:03:53.64    \nframe=   62 fps=0.3 q=43.8 size=     768KiB time=00:00:02.00 bitrate=3145.9kbits/s speed=0.00854x elapsed=0:03:54.16    \nframe=   62 fps=0.3 q=43.8 size=     768KiB time=00:00:02.00 bitrate=3145.9kbits/s speed=0.00852x elapsed=0:03:54.71    \nframe=   62 fps=0.3 q=43.8 size=     768KiB time=00:00:02.00 bitrate=3145.9kbits/s speed=0.0085x elapsed=0:03:55.26    \nframe=   62 fps=0.3 q=43.8 size=     768KiB time=00:00:02.00 bitrate=3145.9kbits/s speed=0.00848x elapsed=0:03:55.77    \nframe=   62 fps=0.3 q=43.8 size=     768KiB time=00:00:02.00 bitrate=3145.9kbits/s speed=0.00846x elapsed=0:03:56.29    \nframe=   62 fps=0.3 q=43.8 size=     768KiB time=00:00:02.00 bitrate=3145.9kbits/s speed=0.00844x elapsed=0:03:56.82    \nframe=   63 fps=0.3 q=45.1 size=     768KiB time=00:00:02.03 bitrate=3094.3kbits/s speed=0.00857x elapsed=0:03:57.36    \nframe=   63 fps=0.3 q=45.1 size=     768KiB time=00:00:02.03 bitrate=3094.3kbits/s speed=0.00855x elapsed=0:03:57.87    \nframe=   63 fps=0.3 q=45.1 size=     768KiB time=00:00:02.03 bitrate=3094.3kbits/s speed=0.00853x elapsed=0:03:58.39    \nframe=   63 fps=0.3 q=45.1 size=     768KiB time=00:00:02.03 bitrate=3094.3kbits/s speed=0.00851x elapsed=0:03:58.92    \nframe=   63 fps=0.3 q=45.1 size=     768KiB time=00:00:02.03 bitrate=3094.3kbits/s speed=0.00849x elapsed=0:03:59.51    \nframe=   63 fps=0.3 q=45.1 size=     768KiB time=00:00:02.03 bitrate=3094.3kbits/s speed=0.00847x elapsed=0:04:00.06    \nframe=   64 fps=0.3 q=47.0 size=     768KiB time=00:00:02.06 bitrate=3044.4kbits/s speed=0.00859x elapsed=0:04:00.59    \nframe=   64 fps=0.3 q=47.0 size=     768KiB time=00:00:02.06 bitrate=3044.4kbits/s speed=0.00857x elapsed=0:04:01.12    \nframe=   64 fps=0.3 q=47.0 size=     768KiB time=00:00:02.06 bitrate=3044.4kbits/s speed=0.00855x elapsed=0:04:01.64    \nframe=   65 fps=0.3 q=47.1 size=     768KiB time=00:00:02.10 bitrate=2996.1kbits/s speed=0.00867x elapsed=0:04:02.17    \nframe=   65 fps=0.3 q=47.1 size=     768KiB time=00:00:02.10 bitrate=2996.1kbits/s speed=0.00865x elapsed=0:04:02.70    \nframe=   65 fps=0.3 q=47.1 size=     768KiB time=00:00:02.10 bitrate=2996.1kbits/s speed=0.00863x elapsed=0:04:03.27    \nframe=   65 fps=0.3 q=47.1 size=     768KiB time=00:00:02.10 bitrate=2996.1kbits/s speed=0.00861x elapsed=0:04:03.78    \nframe=   65 fps=0.3 q=47.1 size=     768KiB time=00:00:02.10 bitrate=2996.1kbits/s speed=0.0086x elapsed=0:04:04.30    \nframe=   66 fps=0.3 q=44.0 size=     768KiB time=00:00:02.13 bitrate=2949.3kbits/s speed=0.00871x elapsed=0:04:04.84    \nframe=   66 fps=0.3 q=44.0 size=     768KiB time=00:00:02.13 bitrate=2949.3kbits/s speed=0.00869x elapsed=0:04:05.36    \nframe=   66 fps=0.3 q=44.0 size=     768KiB time=00:00:02.13 bitrate=2949.3kbits/s speed=0.00868x elapsed=0:04:05.88    \nframe=   66 fps=0.3 q=44.0 size=     768KiB time=00:00:02.13 bitrate=2949.3kbits/s speed=0.00866x elapsed=0:04:06.41    \nframe=   67 fps=0.3 q=45.6 size=     768KiB time=00:00:02.16 bitrate=2903.9kbits/s speed=0.00877x elapsed=0:04:06.93    \nframe=   67 fps=0.3 q=45.6 size=     768KiB time=00:00:02.16 bitrate=2903.9kbits/s speed=0.00876x elapsed=0:04:07.45    \nframe=   68 fps=0.3 q=47.0 size=     768KiB time=00:00:02.20 bitrate=2859.9kbits/s speed=0.00887x elapsed=0:04:07.95    \nframe=   68 fps=0.3 q=47.0 size=     768KiB time=00:00:02.20 bitrate=2859.9kbits/s speed=0.00885x elapsed=0:04:08.48    \nframe=   68 fps=0.3 q=47.0 size=     768KiB time=00:00:02.20 bitrate=2859.9kbits/s speed=0.00884x elapsed=0:04:08.99    \nframe=   68 fps=0.3 q=47.0 size=     768KiB time=00:00:02.20 bitrate=2859.9kbits/s speed=0.00882x elapsed=0:04:09.52    \nframe=   68 fps=0.3 q=47.0 size=     768KiB time=00:00:02.20 bitrate=2859.9kbits/s speed=0.0088x elapsed=0:04:10.05    \nframe=   68 fps=0.3 q=47.0 size=     768KiB time=00:00:02.20 bitrate=2859.9kbits/s speed=0.00878x elapsed=0:04:10.60    \nframe=   68 fps=0.3 q=47.0 size=     768KiB time=00:00:02.20 bitrate=2859.9kbits/s speed=0.00876x elapsed=0:04:11.13    \nframe=   68 fps=0.3 q=47.0 size=     768KiB time=00:00:02.20 bitrate=2859.9kbits/s speed=0.00874x elapsed=0:04:11.68    \nframe=   69 fps=0.3 q=46.8 size=     768KiB time=00:00:02.23 bitrate=2817.2kbits/s speed=0.00885x elapsed=0:04:12.23    \nframe=   69 fps=0.3 q=46.8 size=     768KiB time=00:00:02.23 bitrate=2817.2kbits/s speed=0.00884x elapsed=0:04:12.75    \nframe=   69 fps=0.3 q=46.8 size=     768KiB time=00:00:02.23 bitrate=2817.2kbits/s speed=0.00882x elapsed=0:04:13.27    \nframe=   70 fps=0.3 q=47.1 size=     768KiB time=00:00:02.26 bitrate=2775.8kbits/s speed=0.00893x elapsed=0:04:13.79    \nframe=   70 fps=0.3 q=47.1 size=     768KiB time=00:00:02.26 bitrate=2775.8kbits/s speed=0.00891x elapsed=0:04:14.30    \nframe=   71 fps=0.3 q=44.2 size=     768KiB time=00:00:02.30 bitrate=2735.6kbits/s speed=0.00903x elapsed=0:04:14.82    \nframe=   71 fps=0.3 q=44.2 size=     768KiB time=00:00:02.30 bitrate=2735.6kbits/s speed=0.00901x elapsed=0:04:15.34    \nframe=   72 fps=0.3 q=45.5 size=     768KiB time=00:00:02.33 bitrate=2696.5kbits/s speed=0.00912x elapsed=0:04:15.85    \nframe=   72 fps=0.3 q=45.5 size=     768KiB time=00:00:02.33 bitrate=2696.5kbits/s speed=0.0091x elapsed=0:04:16.37    \nframe=   73 fps=0.3 q=46.9 size=     768KiB time=00:00:02.36 bitrate=2658.5kbits/s speed=0.00921x elapsed=0:04:16.88    \nframe=   74 fps=0.3 q=47.0 size=     768KiB time=00:00:02.40 bitrate=2621.6kbits/s speed=0.00932x elapsed=0:04:17.40    \nframe=   74 fps=0.3 q=47.0 size=     768KiB time=00:00:02.40 bitrate=2621.6kbits/s speed=0.00931x elapsed=0:04:17.92    \nframe=   74 fps=0.3 q=47.0 size=     768KiB time=00:00:02.40 bitrate=2621.6kbits/s speed=0.00929x elapsed=0:04:18.43    \nframe=   75 fps=0.3 q=44.1 size=     768KiB time=00:00:02.43 bitrate=2585.7kbits/s speed=0.0094x elapsed=0:04:18.94    \nframe=   76 fps=0.3 q=44.7 size=     768KiB time=00:00:02.46 bitrate=2550.7kbits/s speed=0.00951x elapsed=0:04:19.45    \nframe=   76 fps=0.3 q=44.7 size=     768KiB time=00:00:02.46 bitrate=2550.7kbits/s speed=0.00949x elapsed=0:04:19.97    \nframe=   77 fps=0.3 q=46.7 size=     768KiB time=00:00:02.50 bitrate=2516.7kbits/s speed=0.0096x elapsed=0:04:20.50    \nframe=   78 fps=0.3 q=46.4 size=     768KiB time=00:00:02.53 bitrate=2483.6kbits/s speed=0.00971x elapsed=0:04:21.01    \nframe=   78 fps=0.3 q=46.4 size=     768KiB time=00:00:02.53 bitrate=2483.6kbits/s speed=0.00969x elapsed=0:04:21.52    \nframe=   79 fps=0.3 q=46.2 size=     768KiB time=00:00:02.56 bitrate=2451.4kbits/s speed=0.0098x elapsed=0:04:22.03    \nframe=   79 fps=0.3 q=46.2 size=     768KiB time=00:00:02.56 bitrate=2451.4kbits/s speed=0.00978x elapsed=0:04:22.55    \nframe=   79 fps=0.3 q=46.2 size=     768KiB time=00:00:02.56 bitrate=2451.4kbits/s speed=0.00976x elapsed=0:04:23.07    \nframe=   80 fps=0.3 q=43.4 size=     768KiB time=00:00:02.60 bitrate=2419.9kbits/s speed=0.00986x elapsed=0:04:23.58    \nframe=   80 fps=0.3 q=43.4 size=     768KiB time=00:00:02.60 bitrate=2419.9kbits/s speed=0.00984x elapsed=0:04:24.15    \nframe=   80 fps=0.3 q=43.4 size=     768KiB time=00:00:02.60 bitrate=2419.9kbits/s speed=0.00982x elapsed=0:04:24.66    \nframe=   80 fps=0.3 q=43.4 size=     768KiB time=00:00:02.60 bitrate=2419.9kbits/s speed=0.0098x elapsed=0:04:25.17    \nframe=   80 fps=0.3 q=43.4 size=     768KiB time=00:00:02.60 bitrate=2419.9kbits/s speed=0.00979x elapsed=0:04:25.69    \nframe=   80 fps=0.3 q=43.4 size=     768KiB time=00:00:02.60 bitrate=2419.9kbits/s speed=0.00977x elapsed=0:04:26.22    \nframe=   80 fps=0.3 q=43.4 size=     768KiB time=00:00:02.60 bitrate=2419.9kbits/s speed=0.00975x elapsed=0:04:26.74    \nframe=   81 fps=0.3 q=44.2 size=     768KiB time=00:00:02.63 bitrate=2389.3kbits/s speed=0.00985x elapsed=0:04:27.27    \nframe=   81 fps=0.3 q=44.2 size=     768KiB time=00:00:02.63 bitrate=2389.3kbits/s speed=0.00983x elapsed=0:04:27.79    \nframe=   81 fps=0.3 q=44.2 size=     768KiB time=00:00:02.63 bitrate=2389.3kbits/s speed=0.00981x elapsed=0:04:28.31    \nframe=   81 fps=0.3 q=44.2 size=     768KiB time=00:00:02.63 bitrate=2389.3kbits/s speed=0.00979x elapsed=0:04:28.84    \nframe=   82 fps=0.3 q=46.0 size=     768KiB time=00:00:02.66 bitrate=2359.4kbits/s speed=0.0099x elapsed=0:04:29.35    \nframe=   82 fps=0.3 q=46.0 size=     768KiB time=00:00:02.66 bitrate=2359.4kbits/s speed=0.00988x elapsed=0:04:29.89    \nframe=   82 fps=0.3 q=46.0 size=     768KiB time=00:00:02.66 bitrate=2359.4kbits/s speed=0.00986x elapsed=0:04:30.42    \nframe=   83 fps=0.3 q=46.0 size=     768KiB time=00:00:02.70 bitrate=2330.3kbits/s speed=0.00997x elapsed=0:04:30.93    \nframe=   83 fps=0.3 q=46.0 size=     768KiB time=00:00:02.70 bitrate=2330.3kbits/s speed=0.00995x elapsed=0:04:31.47    \nframe=   83 fps=0.3 q=46.0 size=     768KiB time=00:00:02.70 bitrate=2330.3kbits/s speed=0.00993x elapsed=0:04:31.97    \nframe=   84 fps=0.3 q=45.7 size=     768KiB time=00:00:02.73 bitrate=2301.9kbits/s speed=0.01x elapsed=0:04:32.51    \nframe=   84 fps=0.3 q=45.7 size=     768KiB time=00:00:02.73 bitrate=2301.9kbits/s speed=0.01x elapsed=0:04:33.02    \nframe=   84 fps=0.3 q=45.7 size=     768KiB time=00:00:02.73 bitrate=2301.9kbits/s speed=0.00999x elapsed=0:04:33.55    \nframe=   84 fps=0.3 q=45.7 size=     768KiB time=00:00:02.73 bitrate=2301.9kbits/s speed=0.00997x elapsed=0:04:34.07    \nframe=   84 fps=0.3 q=45.7 size=     768KiB time=00:00:02.73 bitrate=2301.9kbits/s speed=0.00995x elapsed=0:04:34.60    \nframe=   84 fps=0.3 q=45.7 size=     768KiB time=00:00:02.73 bitrate=2301.9kbits/s speed=0.00994x elapsed=0:04:35.12    \nframe=   84 fps=0.3 q=45.7 size=     768KiB time=00:00:02.73 bitrate=2301.9kbits/s speed=0.00992x elapsed=0:04:35.64    \nframe=   84 fps=0.3 q=45.7 size=     768KiB time=00:00:02.73 bitrate=2301.9kbits/s speed=0.0099x elapsed=0:04:36.15    \nframe=   84 fps=0.3 q=45.7 size=     768KiB time=00:00:02.73 bitrate=2301.9kbits/s speed=0.00988x elapsed=0:04:36.68    \nframe=   84 fps=0.3 q=45.7 size=     768KiB time=00:00:02.73 bitrate=2301.9kbits/s speed=0.00986x elapsed=0:04:37.21    \nframe=   85 fps=0.3 q=43.4 size=     768KiB time=00:00:02.76 bitrate=2274.1kbits/s speed=0.00996x elapsed=0:04:37.73    \nframe=   85 fps=0.3 q=43.4 size=     768KiB time=00:00:02.76 bitrate=2274.1kbits/s speed=0.00994x elapsed=0:04:38.26    \nframe=   85 fps=0.3 q=43.4 size=     768KiB time=00:00:02.76 bitrate=2274.1kbits/s speed=0.00992x elapsed=0:04:38.77    \nframe=   85 fps=0.3 q=43.4 size=     768KiB time=00:00:02.76 bitrate=2274.1kbits/s speed=0.0099x elapsed=0:04:39.32    \nframe=   86 fps=0.3 q=43.9 size=    1024KiB time=00:00:02.80 bitrate=2996.1kbits/s speed=0.01x elapsed=0:04:39.84    \nframe=   86 fps=0.3 q=43.9 size=    1024KiB time=00:00:02.80 bitrate=2996.1kbits/s speed=0.00999x elapsed=0:04:40.39    \nframe=   87 fps=0.3 q=45.7 size=    1024KiB time=00:00:02.83 bitrate=2960.8kbits/s speed=0.0101x elapsed=0:04:40.91    \nframe=   87 fps=0.3 q=45.7 size=    1024KiB time=00:00:02.83 bitrate=2960.8kbits/s speed=0.0101x elapsed=0:04:41.42    \nframe=   88 fps=0.3 q=45.5 size=    1024KiB time=00:00:02.86 bitrate=2926.4kbits/s speed=0.0102x elapsed=0:04:41.97    \nframe=   88 fps=0.3 q=45.5 size=    1024KiB time=00:00:02.86 bitrate=2926.4kbits/s speed=0.0101x elapsed=0:04:42.48    \nframe=   88 fps=0.3 q=45.5 size=    1024KiB time=00:00:02.86 bitrate=2926.4kbits/s speed=0.0101x elapsed=0:04:43.01    \nframe=   88 fps=0.3 q=45.5 size=    1024KiB time=00:00:02.86 bitrate=2926.4kbits/s speed=0.0101x elapsed=0:04:43.55    \nframe=   88 fps=0.3 q=45.5 size=    1024KiB time=00:00:02.86 bitrate=2926.4kbits/s speed=0.0101x elapsed=0:04:44.08    \nframe=   88 fps=0.3 q=45.5 size=    1024KiB time=00:00:02.86 bitrate=2926.4kbits/s speed=0.0101x elapsed=0:04:44.61    \nframe=   88 fps=0.3 q=45.5 size=    1024KiB time=00:00:02.86 bitrate=2926.4kbits/s speed=0.0101x elapsed=0:04:45.16    \nframe=   89 fps=0.3 q=45.7 size=    1024KiB time=00:00:02.86 bitrate=2926.4kbits/s speed=0.01x elapsed=0:04:45.73    \nframe=   89 fps=0.3 q=45.7 size=    1024KiB time=00:00:02.90 bitrate=2892.7kbits/s speed=0.0101x elapsed=0:04:46.26    \nframe=   89 fps=0.3 q=45.7 size=    1024KiB time=00:00:02.90 bitrate=2892.7kbits/s speed=0.0101x elapsed=0:04:46.79    \nframe=   90 fps=0.3 q=43.3 size=    1024KiB time=00:00:02.93 bitrate=2859.9kbits/s speed=0.0102x elapsed=0:04:47.33    \nframe=   90 fps=0.3 q=43.3 size=    1024KiB time=00:00:02.93 bitrate=2859.9kbits/s speed=0.0102x elapsed=0:04:47.85    \nframe=   90 fps=0.3 q=43.3 size=    1024KiB time=00:00:02.93 bitrate=2859.9kbits/s speed=0.0102x elapsed=0:04:48.39    \nframe=   91 fps=0.3 q=44.6 size=    1024KiB time=00:00:02.96 bitrate=2827.7kbits/s speed=0.0103x elapsed=0:04:48.91    \nframe=   91 fps=0.3 q=44.6 size=    1024KiB time=00:00:02.96 bitrate=2827.7kbits/s speed=0.0102x elapsed=0:04:49.43    \nframe=   92 fps=0.3 q=45.9 size=    1024KiB time=00:00:03.00 bitrate=2796.3kbits/s speed=0.0103x elapsed=0:04:50.03    \nframe=   92 fps=0.3 q=45.9 size=    1024KiB time=00:00:03.00 bitrate=2796.3kbits/s speed=0.0103x elapsed=0:04:50.57    \nframe=   92 fps=0.3 q=45.9 size=    1024KiB time=00:00:03.00 bitrate=2796.3kbits/s speed=0.0103x elapsed=0:04:51.11    \nframe=   93 fps=0.3 q=45.4 size=    1024KiB time=00:00:03.03 bitrate=2765.6kbits/s speed=0.0104x elapsed=0:04:51.64    \nframe=   93 fps=0.3 q=45.4 size=    1024KiB time=00:00:03.03 bitrate=2765.6kbits/s speed=0.0104x elapsed=0:04:52.16    \nframe=   94 fps=0.3 q=45.6 size=    1024KiB time=00:00:03.06 bitrate=2735.5kbits/s speed=0.0105x elapsed=0:04:52.69    \nframe=   94 fps=0.3 q=45.6 size=    1024KiB time=00:00:03.06 bitrate=2735.5kbits/s speed=0.0105x elapsed=0:04:53.25    \nframe=   94 fps=0.3 q=45.6 size=    1024KiB time=00:00:03.06 bitrate=2735.5kbits/s speed=0.0104x elapsed=0:04:53.77    \nframe=   94 fps=0.3 q=45.6 size=    1024KiB time=00:00:03.06 bitrate=2735.5kbits/s speed=0.0104x elapsed=0:04:54.29    \nframe=   94 fps=0.3 q=45.6 size=    1024KiB time=00:00:03.06 bitrate=2735.5kbits/s speed=0.0104x elapsed=0:04:54.81    \nframe=   94 fps=0.3 q=45.6 size=    1024KiB time=00:00:03.06 bitrate=2735.5kbits/s speed=0.0104x elapsed=0:04:55.32    \nframe=   94 fps=0.3 q=45.6 size=    1024KiB time=00:00:03.06 bitrate=2735.5kbits/s speed=0.0104x elapsed=0:04:55.85    \nframe=   94 fps=0.3 q=45.6 size=    1024KiB time=00:00:03.06 bitrate=2735.5kbits/s speed=0.0103x elapsed=0:04:56.37    \nframe=   94 fps=0.3 q=45.6 size=    1024KiB time=00:00:03.06 bitrate=2735.5kbits/s speed=0.0103x elapsed=0:04:56.90    \nframe=   94 fps=0.3 q=45.6 size=    1024KiB time=00:00:03.06 bitrate=2735.5kbits/s speed=0.0103x elapsed=0:04:57.43    \nframe=   94 fps=0.3 q=45.6 size=    1024KiB time=00:00:03.06 bitrate=2735.5kbits/s speed=0.0103x elapsed=0:04:57.99    \nframe=   94 fps=0.3 q=45.6 size=    1024KiB time=00:00:03.06 bitrate=2735.5kbits/s speed=0.0103x elapsed=0:04:58.52    \nframe=   94 fps=0.3 q=45.6 size=    1024KiB time=00:00:03.06 bitrate=2735.5kbits/s speed=0.0103x elapsed=0:04:59.05    \nframe=   94 fps=0.3 q=45.6 size=    1024KiB time=00:00:03.06 bitrate=2735.5kbits/s speed=0.0102x elapsed=0:04:59.57    \nframe=   95 fps=0.3 q=43.2 size=    1024KiB time=00:00:03.10 bitrate=2706.1kbits/s speed=0.0103x elapsed=0:05:00.13    \nframe=   95 fps=0.3 q=43.2 size=    1024KiB time=00:00:03.10 bitrate=2706.1kbits/s speed=0.0103x elapsed=0:05:00.67    \nframe=   95 fps=0.3 q=43.2 size=    1024KiB time=00:00:03.10 bitrate=2706.1kbits/s speed=0.0103x elapsed=0:05:01.24    \nframe=   95 fps=0.3 q=43.2 size=    1024KiB time=00:00:03.10 bitrate=2706.1kbits/s speed=0.0103x elapsed=0:05:01.79    \nframe=   96 fps=0.3 q=44.3 size=    1024KiB time=00:00:03.13 bitrate=2677.3kbits/s speed=0.0104x elapsed=0:05:02.32    \nframe=   96 fps=0.3 q=44.3 size=    1024KiB time=00:00:03.13 bitrate=2677.3kbits/s speed=0.0103x elapsed=0:05:02.85    \nframe=   96 fps=0.3 q=44.3 size=    1024KiB time=00:00:03.13 bitrate=2677.3kbits/s speed=0.0103x elapsed=0:05:03.39    \nframe=   96 fps=0.3 q=44.3 size=    1024KiB time=00:00:03.13 bitrate=2677.3kbits/s speed=0.0103x elapsed=0:05:03.92    \nframe=   96 fps=0.3 q=44.3 size=    1024KiB time=00:00:03.13 bitrate=2677.3kbits/s speed=0.0103x elapsed=0:05:04.47    \nframe=   96 fps=0.3 q=44.3 size=    1024KiB time=00:00:03.13 bitrate=2677.3kbits/s speed=0.0103x elapsed=0:05:04.99    \nframe=   97 fps=0.3 q=45.3 size=    1024KiB time=00:00:03.16 bitrate=2649.1kbits/s speed=0.0104x elapsed=0:05:05.50    \nframe=   97 fps=0.3 q=45.3 size=    1024KiB time=00:00:03.16 bitrate=2649.1kbits/s speed=0.0103x elapsed=0:05:06.03    \nframe=   97 fps=0.3 q=45.3 size=    1024KiB time=00:00:03.16 bitrate=2649.1kbits/s speed=0.0103x elapsed=0:05:06.59    \nframe=   97 fps=0.3 q=45.3 size=    1024KiB time=00:00:03.16 bitrate=2649.1kbits/s speed=0.0103x elapsed=0:05:07.14    \nframe=   97 fps=0.3 q=45.3 size=    1024KiB time=00:00:03.16 bitrate=2649.1kbits/s speed=0.0103x elapsed=0:05:07.65    \nframe=   97 fps=0.3 q=45.3 size=    1024KiB time=00:00:03.16 bitrate=2649.1kbits/s speed=0.0103x elapsed=0:05:08.20    \nframe=   98 fps=0.3 q=45.6 size=    1024KiB time=00:00:03.20 bitrate=2621.6kbits/s speed=0.0104x elapsed=0:05:08.73    \nframe=   98 fps=0.3 q=45.6 size=    1024KiB time=00:00:03.20 bitrate=2621.6kbits/s speed=0.0103x elapsed=0:05:09.26    \nframe=   98 fps=0.3 q=45.6 size=    1024KiB time=00:00:03.20 bitrate=2621.6kbits/s speed=0.0103x elapsed=0:05:09.81    \nframe=   98 fps=0.3 q=45.6 size=    1024KiB time=00:00:03.20 bitrate=2621.6kbits/s speed=0.0103x elapsed=0:05:10.32    \nframe=   99 fps=0.3 q=45.5 size=    1024KiB time=00:00:03.23 bitrate=2594.5kbits/s speed=0.0104x elapsed=0:05:10.83    \nframe=   99 fps=0.3 q=45.5 size=    1024KiB time=00:00:03.23 bitrate=2594.5kbits/s speed=0.0104x elapsed=0:05:11.35    \nframe=   99 fps=0.3 q=45.5 size=    1024KiB time=00:00:03.23 bitrate=2594.5kbits/s speed=0.0104x elapsed=0:05:11.86    \nframe=   99 fps=0.3 q=45.5 size=    1024KiB time=00:00:03.23 bitrate=2594.5kbits/s speed=0.0104x elapsed=0:05:12.39    \nframe=   99 fps=0.3 q=45.5 size=    1024KiB time=00:00:03.23 bitrate=2594.5kbits/s speed=0.0103x elapsed=0:05:12.94    \nframe=   99 fps=0.3 q=45.5 size=    1024KiB time=00:00:03.23 bitrate=2594.5kbits/s speed=0.0103x elapsed=0:05:13.46    \nframe=   99 fps=0.3 q=45.5 size=    1024KiB time=00:00:03.23 bitrate=2594.5kbits/s speed=0.0103x elapsed=0:05:13.99    \nframe=  100 fps=0.3 q=43.0 size=    1024KiB time=00:00:03.26 bitrate=2568.0kbits/s speed=0.0104x elapsed=0:05:14.51    \nframe=  100 fps=0.3 q=43.0 size=    1024KiB time=00:00:03.26 bitrate=2568.0kbits/s speed=0.0104x elapsed=0:05:15.04    \nframe=  101 fps=0.3 q=44.3 size=    1024KiB time=00:00:03.30 bitrate=2542.1kbits/s speed=0.0105x elapsed=0:05:15.58    \nframe=  101 fps=0.3 q=44.3 size=    1024KiB time=00:00:03.30 bitrate=2542.1kbits/s speed=0.0104x elapsed=0:05:16.11    \nframe=  101 fps=0.3 q=44.3 size=    1024KiB time=00:00:03.30 bitrate=2542.1kbits/s speed=0.0104x elapsed=0:05:16.62    \nframe=  102 fps=0.3 q=45.3 size=    1024KiB time=00:00:03.33 bitrate=2516.7kbits/s speed=0.0105x elapsed=0:05:17.15    \nframe=  102 fps=0.3 q=45.3 size=    1024KiB time=00:00:03.33 bitrate=2516.7kbits/s speed=0.0105x elapsed=0:05:17.67    \nframe=  102 fps=0.3 q=45.3 size=    1024KiB time=00:00:03.33 bitrate=2516.7kbits/s speed=0.0105x elapsed=0:05:18.21    \nframe=  102 fps=0.3 q=45.3 size=    1024KiB time=00:00:03.33 bitrate=2516.7kbits/s speed=0.0105x elapsed=0:05:18.77    \nframe=  102 fps=0.3 q=45.3 size=    1024KiB time=00:00:03.33 bitrate=2516.7kbits/s speed=0.0104x elapsed=0:05:19.33    \nframe=  102 fps=0.3 q=45.3 size=    1024KiB time=00:00:03.33 bitrate=2516.7kbits/s speed=0.0104x elapsed=0:05:19.89    \nframe=  102 fps=0.3 q=45.3 size=    1024KiB time=00:00:03.33 bitrate=2516.7kbits/s speed=0.0104x elapsed=0:05:20.44    \nframe=  103 fps=0.3 q=45.2 size=    1024KiB time=00:00:03.36 bitrate=2491.8kbits/s speed=0.0105x elapsed=0:05:20.96    \nframe=  103 fps=0.3 q=45.2 size=    1024KiB time=00:00:03.36 bitrate=2491.8kbits/s speed=0.0105x elapsed=0:05:21.47    \nframe=  103 fps=0.3 q=45.2 size=    1024KiB time=00:00:03.36 bitrate=2491.8kbits/s speed=0.0105x elapsed=0:05:21.99    \nframe=  103 fps=0.3 q=45.2 size=    1024KiB time=00:00:03.36 bitrate=2491.8kbits/s speed=0.0104x elapsed=0:05:22.51    \nframe=  103 fps=0.3 q=45.2 size=    1024KiB time=00:00:03.36 bitrate=2491.8kbits/s speed=0.0104x elapsed=0:05:23.03    \nframe=  104 fps=0.3 q=45.4 size=    1024KiB time=00:00:03.40 bitrate=2467.3kbits/s speed=0.0105x elapsed=0:05:23.54    \nframe=  104 fps=0.3 q=45.4 size=    1024KiB time=00:00:03.40 bitrate=2467.3kbits/s speed=0.0105x elapsed=0:05:24.07    \nframe=  105 fps=0.3 q=42.9 size=    1024KiB time=00:00:03.43 bitrate=2443.4kbits/s speed=0.0106x elapsed=0:05:24.59    \nframe=  105 fps=0.3 q=42.9 size=    1024KiB time=00:00:03.43 bitrate=2443.4kbits/s speed=0.0106x elapsed=0:05:25.10    \nframe=  106 fps=0.3 q=43.9 size=    1024KiB time=00:00:03.46 bitrate=2419.9kbits/s speed=0.0106x elapsed=0:05:25.61    \nframe=  106 fps=0.3 q=43.9 size=    1024KiB time=00:00:03.46 bitrate=2419.9kbits/s speed=0.0106x elapsed=0:05:26.14    \nframe=  107 fps=0.3 q=45.1 size=    1280KiB time=00:00:03.50 bitrate=2996.0kbits/s speed=0.0107x elapsed=0:05:26.65    \nframe=  107 fps=0.3 q=45.1 size=    1280KiB time=00:00:03.50 bitrate=2996.0kbits/s speed=0.0107x elapsed=0:05:27.17    \nframe=  108 fps=0.3 q=45.0 size=    1280KiB time=00:00:03.53 bitrate=2967.8kbits/s speed=0.0108x elapsed=0:05:27.69    \nframe=  108 fps=0.3 q=45.0 size=    1280KiB time=00:00:03.53 bitrate=2967.8kbits/s speed=0.0108x elapsed=0:05:28.20    \nframe=  109 fps=0.3 q=45.0 size=    1280KiB time=00:00:03.56 bitrate=2940.0kbits/s speed=0.0109x elapsed=0:05:28.72    \nframe=  109 fps=0.3 q=45.0 size=    1280KiB time=00:00:03.56 bitrate=2940.0kbits/s speed=0.0108x elapsed=0:05:29.23    \nframe=  109 fps=0.3 q=45.0 size=    1280KiB time=00:00:03.56 bitrate=2940.0kbits/s speed=0.0108x elapsed=0:05:29.73    \nframe=  110 fps=0.3 q=42.6 size=    1280KiB time=00:00:03.60 bitrate=2912.8kbits/s speed=0.0109x elapsed=0:05:30.25    \nframe=  110 fps=0.3 q=42.6 size=    1280KiB time=00:00:03.60 bitrate=2912.8kbits/s speed=0.0109x elapsed=0:05:30.77    \nframe=  111 fps=0.3 q=43.8 size=    1280KiB time=00:00:03.63 bitrate=2886.1kbits/s speed=0.011x elapsed=0:05:31.29    \nframe=  111 fps=0.3 q=43.8 size=    1280KiB time=00:00:03.63 bitrate=2886.1kbits/s speed=0.011x elapsed=0:05:31.80    \nframe=  112 fps=0.3 q=44.9 size=    1280KiB time=00:00:03.66 bitrate=2859.8kbits/s speed=0.011x elapsed=0:05:32.33    \nframe=  112 fps=0.3 q=44.9 size=    1280KiB time=00:00:03.66 bitrate=2859.8kbits/s speed=0.011x elapsed=0:05:32.83    \nframe=  113 fps=0.3 q=44.7 size=    1280KiB time=00:00:03.70 bitrate=2834.1kbits/s speed=0.0111x elapsed=0:05:33.35    \nframe=  113 fps=0.3 q=44.7 size=    1280KiB time=00:00:03.70 bitrate=2834.1kbits/s speed=0.0111x elapsed=0:05:33.87    \nframe=  113 fps=0.3 q=44.7 size=    1280KiB time=00:00:03.70 bitrate=2834.1kbits/s speed=0.0111x elapsed=0:05:34.39    \nframe=  114 fps=0.3 q=44.7 size=    1280KiB time=00:00:03.73 bitrate=2808.8kbits/s speed=0.0111x elapsed=0:05:34.92    \nframe=  114 fps=0.3 q=44.7 size=    1280KiB time=00:00:03.73 bitrate=2808.8kbits/s speed=0.0111x elapsed=0:05:35.43    \nframe=  115 fps=0.3 q=42.8 size=    1280KiB time=00:00:03.76 bitrate=2783.9kbits/s speed=0.0112x elapsed=0:05:35.95    \nframe=  115 fps=0.3 q=42.8 size=    1280KiB time=00:00:03.76 bitrate=2783.9kbits/s speed=0.0112x elapsed=0:05:36.47    \nframe=  116 fps=0.3 q=43.5 size=    1280KiB time=00:00:03.80 bitrate=2759.5kbits/s speed=0.0113x elapsed=0:05:36.97    \nframe=  116 fps=0.3 q=43.5 size=    1280KiB time=00:00:03.80 bitrate=2759.5kbits/s speed=0.0113x elapsed=0:05:37.49    \nframe=  117 fps=0.3 q=44.3 size=    1280KiB time=00:00:03.83 bitrate=2735.5kbits/s speed=0.0113x elapsed=0:05:38.01    \nframe=  117 fps=0.3 q=44.3 size=    1280KiB time=00:00:03.83 bitrate=2735.5kbits/s speed=0.0113x elapsed=0:05:38.52    \nframe=  118 fps=0.3 q=44.5 size=    1280KiB time=00:00:03.86 bitrate=2711.9kbits/s speed=0.0114x elapsed=0:05:39.04    \nframe=  118 fps=0.3 q=44.5 size=    1280KiB time=00:00:03.86 bitrate=2711.9kbits/s speed=0.0114x elapsed=0:05:39.56    \nframe=  118 fps=0.3 q=44.5 size=    1280KiB time=00:00:03.86 bitrate=2711.9kbits/s speed=0.0114x elapsed=0:05:40.07    \nframe=  119 fps=0.3 q=44.9 size=    1280KiB time=00:00:03.90 bitrate=2688.7kbits/s speed=0.0115x elapsed=0:05:40.58    \nframe=  119 fps=0.3 q=44.9 size=    1280KiB time=00:00:03.90 bitrate=2688.7kbits/s speed=0.0114x elapsed=0:05:41.10    \nframe=  120 fps=0.4 q=42.6 size=    1280KiB time=00:00:03.93 bitrate=2666.0kbits/s speed=0.0115x elapsed=0:05:41.62    \nframe=  120 fps=0.4 q=42.6 size=    1280KiB time=00:00:03.93 bitrate=2666.0kbits/s speed=0.0115x elapsed=0:05:42.13    \nframe=  121 fps=0.4 q=43.4 size=    1280KiB time=00:00:03.96 bitrate=2643.6kbits/s speed=0.0116x elapsed=0:05:42.66    \nframe=  121 fps=0.4 q=43.4 size=    1280KiB time=00:00:03.96 bitrate=2643.6kbits/s speed=0.0116x elapsed=0:05:43.18    \nframe=  122 fps=0.4 q=44.7 size=    1280KiB time=00:00:04.00 bitrate=2621.5kbits/s speed=0.0116x elapsed=0:05:43.70    \nframe=  122 fps=0.4 q=44.7 size=    1280KiB time=00:00:04.00 bitrate=2621.5kbits/s speed=0.0116x elapsed=0:05:44.21    \nframe=  123 fps=0.4 q=44.5 size=    1280KiB time=00:00:04.03 bitrate=2599.9kbits/s speed=0.0117x elapsed=0:05:44.73    \nframe=  123 fps=0.4 q=44.5 size=    1280KiB time=00:00:04.03 bitrate=2599.9kbits/s speed=0.0117x elapsed=0:05:45.24    \nframe=  124 fps=0.4 q=42.6 size=    1280KiB time=00:00:04.06 bitrate=2578.6kbits/s speed=0.0118x elapsed=0:05:45.75    \nframe=  124 fps=0.4 q=42.6 size=    1280KiB time=00:00:04.06 bitrate=2578.6kbits/s speed=0.0117x elapsed=0:05:46.27    \nframe=  125 fps=0.4 q=43.4 size=    1280KiB time=00:00:04.10 bitrate=2557.6kbits/s speed=0.0118x elapsed=0:05:46.78    \nframe=  125 fps=0.4 q=43.4 size=    1280KiB time=00:00:04.10 bitrate=2557.6kbits/s speed=0.0118x elapsed=0:05:47.30    \nframe=  126 fps=0.4 q=44.5 size=    1280KiB time=00:00:04.13 bitrate=2537.0kbits/s speed=0.0119x elapsed=0:05:47.82    \nframe=  126 fps=0.4 q=44.5 size=    1280KiB time=00:00:04.13 bitrate=2537.0kbits/s speed=0.0119x elapsed=0:05:48.33    \nframe=  126 fps=0.4 q=44.5 size=    1280KiB time=00:00:04.13 bitrate=2537.0kbits/s speed=0.0118x elapsed=0:05:48.85    \nframe=  127 fps=0.4 q=44.5 size=    1280KiB time=00:00:04.16 bitrate=2516.7kbits/s speed=0.0119x elapsed=0:05:49.37    \nframe=  128 fps=0.4 q=42.5 size=    1280KiB time=00:00:04.20 bitrate=2496.7kbits/s speed=0.012x elapsed=0:05:49.88    \nframe=  128 fps=0.4 q=42.5 size=    1280KiB time=00:00:04.20 bitrate=2496.7kbits/s speed=0.012x elapsed=0:05:50.39    \nframe=  129 fps=0.4 q=43.3 size=    1280KiB time=00:00:04.23 bitrate=2477.0kbits/s speed=0.0121x elapsed=0:05:50.92    \nframe=  129 fps=0.4 q=43.3 size=    1280KiB time=00:00:04.23 bitrate=2477.0kbits/s speed=0.012x elapsed=0:05:51.43    \nframe=  129 fps=0.4 q=43.3 size=    1280KiB time=00:00:04.23 bitrate=2477.0kbits/s speed=0.012x elapsed=0:05:51.95    \nframe=  130 fps=0.4 q=44.5 size=    1536KiB time=00:00:04.26 bitrate=2949.2kbits/s speed=0.0121x elapsed=0:05:52.47    \nframe=  130 fps=0.4 q=44.5 size=    1536KiB time=00:00:04.26 bitrate=2949.2kbits/s speed=0.0121x elapsed=0:05:52.98    \nframe=  131 fps=0.4 q=44.5 size=    1536KiB time=00:00:04.30 bitrate=2926.3kbits/s speed=0.0122x elapsed=0:05:53.49    \nframe=  131 fps=0.4 q=44.5 size=    1536KiB time=00:00:04.30 bitrate=2926.3kbits/s speed=0.0121x elapsed=0:05:54.00    \nframe=  132 fps=0.4 q=44.2 size=    1536KiB time=00:00:04.30 bitrate=2926.3kbits/s speed=0.0121x elapsed=0:05:54.53    \nframe=  132 fps=0.4 q=44.2 size=    1536KiB time=00:00:04.33 bitrate=2903.8kbits/s speed=0.0122x elapsed=0:05:55.07    \nframe=  132 fps=0.4 q=44.2 size=    1536KiB time=00:00:04.33 bitrate=2903.8kbits/s speed=0.0122x elapsed=0:05:55.61    \nframe=  132 fps=0.4 q=44.2 size=    1536KiB time=00:00:04.33 bitrate=2903.8kbits/s speed=0.0122x elapsed=0:05:56.17    \nframe=  132 fps=0.4 q=44.2 size=    1536KiB time=00:00:04.33 bitrate=2903.8kbits/s speed=0.0121x elapsed=0:05:56.69    \nframe=  132 fps=0.4 q=44.2 size=    1536KiB time=00:00:04.33 bitrate=2903.8kbits/s speed=0.0121x elapsed=0:05:57.23    \nframe=  132 fps=0.4 q=44.2 size=    1536KiB time=00:00:04.33 bitrate=2903.8kbits/s speed=0.0121x elapsed=0:05:57.76    \nframe=  132 fps=0.4 q=44.2 size=    1536KiB time=00:00:04.33 bitrate=2903.8kbits/s speed=0.0121x elapsed=0:05:58.30    \nframe=  132 fps=0.4 q=44.2 size=    1536KiB time=00:00:04.33 bitrate=2903.8kbits/s speed=0.0121x elapsed=0:05:58.83    \nframe=  132 fps=0.4 q=44.2 size=    1536KiB time=00:00:04.33 bitrate=2903.8kbits/s speed=0.0121x elapsed=0:05:59.36    \nframe=  133 fps=0.4 q=42.5 size=    1536KiB time=00:00:04.36 bitrate=2881.7kbits/s speed=0.0121x elapsed=0:05:59.87    \nframe=  133 fps=0.4 q=42.5 size=    1536KiB time=00:00:04.36 bitrate=2881.7kbits/s speed=0.0121x elapsed=0:06:00.39    \nframe=  133 fps=0.4 q=42.5 size=    1536KiB time=00:00:04.36 bitrate=2881.7kbits/s speed=0.0121x elapsed=0:06:00.92    \nframe=  133 fps=0.4 q=42.5 size=    1536KiB time=00:00:04.36 bitrate=2881.7kbits/s speed=0.0121x elapsed=0:06:01.47    \nframe=  133 fps=0.4 q=42.5 size=    1536KiB time=00:00:04.36 bitrate=2881.7kbits/s speed=0.0121x elapsed=0:06:01.97    \nframe=  133 fps=0.4 q=42.5 size=    1536KiB time=00:00:04.36 bitrate=2881.7kbits/s speed=0.012x elapsed=0:06:02.49    \nframe=  134 fps=0.4 q=43.0 size=    1536KiB time=00:00:04.40 bitrate=2859.8kbits/s speed=0.0121x elapsed=0:06:03.01    \nframe=  134 fps=0.4 q=43.0 size=    1536KiB time=00:00:04.40 bitrate=2859.8kbits/s speed=0.0121x elapsed=0:06:03.52    \nframe=  134 fps=0.4 q=43.0 size=    1536KiB time=00:00:04.40 bitrate=2859.8kbits/s speed=0.0121x elapsed=0:06:04.06    \nframe=  134 fps=0.4 q=43.0 size=    1536KiB time=00:00:04.40 bitrate=2859.8kbits/s speed=0.0121x elapsed=0:06:04.56    \nframe=  134 fps=0.4 q=43.0 size=    1536KiB time=00:00:04.40 bitrate=2859.8kbits/s speed=0.0121x elapsed=0:06:05.11    \nframe=  134 fps=0.4 q=43.0 size=    1536KiB time=00:00:04.40 bitrate=2859.8kbits/s speed=0.012x elapsed=0:06:05.64    \nframe=  134 fps=0.4 q=43.0 size=    1536KiB time=00:00:04.40 bitrate=2859.8kbits/s speed=0.012x elapsed=0:06:06.18    \nframe=  135 fps=0.4 q=44.3 size=    1536KiB time=00:00:04.43 bitrate=2838.3kbits/s speed=0.0121x elapsed=0:06:06.69    \nframe=  135 fps=0.4 q=44.3 size=    1536KiB time=00:00:04.43 bitrate=2838.3kbits/s speed=0.0121x elapsed=0:06:07.21    \nframe=  135 fps=0.4 q=44.3 size=    1536KiB time=00:00:04.43 bitrate=2838.3kbits/s speed=0.0121x elapsed=0:06:07.74    \nframe=  136 fps=0.4 q=44.4 size=    1536KiB time=00:00:04.46 bitrate=2817.1kbits/s speed=0.0121x elapsed=0:06:08.26    \nframe=  136 fps=0.4 q=44.4 size=    1536KiB time=00:00:04.46 bitrate=2817.1kbits/s speed=0.0121x elapsed=0:06:08.80    \nframe=  136 fps=0.4 q=44.4 size=    1536KiB time=00:00:04.46 bitrate=2817.1kbits/s speed=0.0121x elapsed=0:06:09.32    \nframe=  136 fps=0.4 q=44.4 size=    1536KiB time=00:00:04.46 bitrate=2817.1kbits/s speed=0.0121x elapsed=0:06:09.83    \nframe=  136 fps=0.4 q=44.4 size=    1536KiB time=00:00:04.46 bitrate=2817.1kbits/s speed=0.0121x elapsed=0:06:10.35    \nframe=  136 fps=0.4 q=44.4 size=    1536KiB time=00:00:04.46 bitrate=2817.1kbits/s speed=0.012x elapsed=0:06:10.88    \nframe=  137 fps=0.4 q=42.5 size=    1536KiB time=00:00:04.50 bitrate=2796.3kbits/s speed=0.0121x elapsed=0:06:11.41    \nframe=  137 fps=0.4 q=42.5 size=    1536KiB time=00:00:04.50 bitrate=2796.3kbits/s speed=0.0121x elapsed=0:06:11.94    \nframe=  138 fps=0.4 q=42.7 size=    1536KiB time=00:00:04.53 bitrate=2775.7kbits/s speed=0.0122x elapsed=0:06:12.47    \nframe=  138 fps=0.4 q=42.7 size=    1536KiB time=00:00:04.53 bitrate=2775.7kbits/s speed=0.0122x elapsed=0:06:12.99    \nframe=  138 fps=0.4 q=42.7 size=    1536KiB time=00:00:04.53 bitrate=2775.7kbits/s speed=0.0121x elapsed=0:06:13.52    \nframe=  138 fps=0.4 q=42.7 size=    1536KiB time=00:00:04.53 bitrate=2775.7kbits/s speed=0.0121x elapsed=0:06:14.05    \nframe=  138 fps=0.4 q=42.7 size=    1536KiB time=00:00:04.53 bitrate=2775.7kbits/s speed=0.0121x elapsed=0:06:14.57    \nframe=  139 fps=0.4 q=44.6 size=    1536KiB time=00:00:04.56 bitrate=2755.5kbits/s speed=0.0122x elapsed=0:06:15.11    \nframe=  139 fps=0.4 q=44.6 size=    1536KiB time=00:00:04.56 bitrate=2755.5kbits/s speed=0.0122x elapsed=0:06:15.63    \nframe=  139 fps=0.4 q=44.6 size=    1536KiB time=00:00:04.56 bitrate=2755.5kbits/s speed=0.0121x elapsed=0:06:16.15    \nframe=  139 fps=0.4 q=44.6 size=    1536KiB time=00:00:04.56 bitrate=2755.5kbits/s speed=0.0121x elapsed=0:06:16.67    \nframe=  139 fps=0.4 q=44.6 size=    1536KiB time=00:00:04.56 bitrate=2755.5kbits/s speed=0.0121x elapsed=0:06:17.19    \nframe=  139 fps=0.4 q=44.6 size=    1536KiB time=00:00:04.56 bitrate=2755.5kbits/s speed=0.0121x elapsed=0:06:17.71    \nframe=  140 fps=0.4 q=44.2 size=    1536KiB time=00:00:04.60 bitrate=2735.5kbits/s speed=0.0122x elapsed=0:06:18.23    \nframe=  140 fps=0.4 q=44.2 size=    1536KiB time=00:00:04.60 bitrate=2735.5kbits/s speed=0.0121x elapsed=0:06:18.77    \nframe=  140 fps=0.4 q=44.2 size=    1536KiB time=00:00:04.60 bitrate=2735.5kbits/s speed=0.0121x elapsed=0:06:19.30    \nframe=  140 fps=0.4 q=44.2 size=    1536KiB time=00:00:04.60 bitrate=2735.5kbits/s speed=0.0121x elapsed=0:06:19.83    \nframe=  140 fps=0.4 q=44.2 size=    1536KiB time=00:00:04.60 bitrate=2735.5kbits/s speed=0.0121x elapsed=0:06:20.35    \nframe=  140 fps=0.4 q=44.2 size=    1536KiB time=00:00:04.60 bitrate=2735.5kbits/s speed=0.0121x elapsed=0:06:20.88    \nframe=  141 fps=0.4 q=44.5 size=    1536KiB time=00:00:04.63 bitrate=2715.8kbits/s speed=0.0121x elapsed=0:06:21.40    \nframe=  141 fps=0.4 q=44.5 size=    1536KiB time=00:00:04.63 bitrate=2715.8kbits/s speed=0.0121x elapsed=0:06:21.91    \nframe=  141 fps=0.4 q=44.5 size=    1536KiB time=00:00:04.63 bitrate=2715.8kbits/s speed=0.0121x elapsed=0:06:22.52    \nframe=  141 fps=0.4 q=44.5 size=    1536KiB time=00:00:04.63 bitrate=2715.8kbits/s speed=0.0121x elapsed=0:06:23.04    \nframe=  142 fps=0.4 q=42.5 size=    1536KiB time=00:00:04.66 bitrate=2696.4kbits/s speed=0.0122x elapsed=0:06:23.56    \nframe=  142 fps=0.4 q=42.5 size=    1536KiB time=00:00:04.66 bitrate=2696.4kbits/s speed=0.0122x elapsed=0:06:24.07    \nframe=  142 fps=0.4 q=42.5 size=    1536KiB time=00:00:04.66 bitrate=2696.4kbits/s speed=0.0121x elapsed=0:06:24.59    \nframe=  143 fps=0.4 q=43.0 size=    1536KiB time=00:00:04.70 bitrate=2677.3kbits/s speed=0.0122x elapsed=0:06:25.10    \nframe=  143 fps=0.4 q=43.0 size=    1536KiB time=00:00:04.70 bitrate=2677.3kbits/s speed=0.0122x elapsed=0:06:25.62    \nframe=  143 fps=0.4 q=43.0 size=    1536KiB time=00:00:04.70 bitrate=2677.3kbits/s speed=0.0122x elapsed=0:06:26.17    \nframe=  143 fps=0.4 q=43.0 size=    1536KiB time=00:00:04.70 bitrate=2677.3kbits/s speed=0.0122x elapsed=0:06:26.70    \nframe=  144 fps=0.4 q=44.4 size=    1536KiB time=00:00:04.73 bitrate=2658.4kbits/s speed=0.0122x elapsed=0:06:27.24    \nframe=  144 fps=0.4 q=44.4 size=    1536KiB time=00:00:04.73 bitrate=2658.4kbits/s speed=0.0122x elapsed=0:06:27.76    \nframe=  144 fps=0.4 q=44.4 size=    1536KiB time=00:00:04.73 bitrate=2658.4kbits/s speed=0.0122x elapsed=0:06:28.30    \nframe=  144 fps=0.4 q=44.4 size=    1536KiB time=00:00:04.73 bitrate=2658.4kbits/s speed=0.0122x elapsed=0:06:28.82    \nframe=  144 fps=0.4 q=44.4 size=    1536KiB time=00:00:04.73 bitrate=2658.4kbits/s speed=0.0122x elapsed=0:06:29.35    \nframe=  144 fps=0.4 q=44.4 size=    1536KiB time=00:00:04.73 bitrate=2658.4kbits/s speed=0.0121x elapsed=0:06:29.90    \nframe=  144 fps=0.4 q=44.4 size=    1536KiB time=00:00:04.73 bitrate=2658.4kbits/s speed=0.0121x elapsed=0:06:30.44    \nframe=  144 fps=0.4 q=44.4 size=    1536KiB time=00:00:04.73 bitrate=2658.4kbits/s speed=0.0121x elapsed=0:06:30.99    \nframe=  144 fps=0.4 q=44.4 size=    1536KiB time=00:00:04.73 bitrate=2658.4kbits/s speed=0.0121x elapsed=0:06:31.53    \nframe=  144 fps=0.4 q=44.4 size=    1536KiB time=00:00:04.73 bitrate=2658.4kbits/s speed=0.0121x elapsed=0:06:32.08    \nframe=  145 fps=0.4 q=44.3 size=    1536KiB time=00:00:04.76 bitrate=2639.8kbits/s speed=0.0121x elapsed=0:06:32.62    \nframe=  145 fps=0.4 q=44.3 size=    1536KiB time=00:00:04.76 bitrate=2639.8kbits/s speed=0.0121x elapsed=0:06:33.15    \nframe=  145 fps=0.4 q=44.3 size=    1536KiB time=00:00:04.76 bitrate=2639.8kbits/s speed=0.0121x elapsed=0:06:33.69    \nframe=  145 fps=0.4 q=44.3 size=    1536KiB time=00:00:04.76 bitrate=2639.8kbits/s speed=0.0121x elapsed=0:06:34.21    \nframe=  145 fps=0.4 q=44.3 size=    1536KiB time=00:00:04.76 bitrate=2639.8kbits/s speed=0.0121x elapsed=0:06:34.73    \nframe=  145 fps=0.4 q=44.3 size=    1536KiB time=00:00:04.76 bitrate=2639.8kbits/s speed=0.0121x elapsed=0:06:35.29    \nframe=  145 fps=0.4 q=44.3 size=    1536KiB time=00:00:04.76 bitrate=2639.8kbits/s speed=0.012x elapsed=0:06:35.83    \nframe=  145 fps=0.4 q=44.3 size=    1536KiB time=00:00:04.76 bitrate=2639.8kbits/s speed=0.012x elapsed=0:06:36.37    \nframe=  145 fps=0.4 q=44.3 size=    1536KiB time=00:00:04.76 bitrate=2639.8kbits/s speed=0.012x elapsed=0:06:36.92    \nframe=  145 fps=0.4 q=44.3 size=    1536KiB time=00:00:04.76 bitrate=2639.8kbits/s speed=0.012x elapsed=0:06:37.45    \nframe=  145 fps=0.4 q=44.3 size=    1536KiB time=00:00:04.76 bitrate=2639.8kbits/s speed=0.012x elapsed=0:06:37.99    \nframe=  145 fps=0.4 q=44.3 size=    1536KiB time=00:00:04.76 bitrate=2639.8kbits/s speed=0.012x elapsed=0:06:38.54    \nframe=  145 fps=0.4 q=44.3 size=    1536KiB time=00:00:04.76 bitrate=2639.8kbits/s speed=0.0119x elapsed=0:06:39.09    \nframe=  146 fps=0.4 q=42.4 size=    1536KiB time=00:00:04.80 bitrate=2621.5kbits/s speed=0.012x elapsed=0:06:39.62    \nframe=  146 fps=0.4 q=42.4 size=    1536KiB time=00:00:04.80 bitrate=2621.5kbits/s speed=0.012x elapsed=0:06:40.17    \nframe=  146 fps=0.4 q=42.4 size=    1536KiB time=00:00:04.80 bitrate=2621.5kbits/s speed=0.012x elapsed=0:06:40.71    \nframe=  146 fps=0.4 q=42.4 size=    1536KiB time=00:00:04.80 bitrate=2621.5kbits/s speed=0.012x elapsed=0:06:41.23    \nframe=  146 fps=0.4 q=42.4 size=    1536KiB time=00:00:04.80 bitrate=2621.5kbits/s speed=0.0119x elapsed=0:06:41.75    \nframe=  146 fps=0.4 q=42.4 size=    1536KiB time=00:00:04.80 bitrate=2621.5kbits/s speed=0.0119x elapsed=0:06:42.26    \nframe=  146 fps=0.4 q=42.4 size=    1536KiB time=00:00:04.80 bitrate=2621.5kbits/s speed=0.0119x elapsed=0:06:42.80    \nframe=  147 fps=0.4 q=42.7 size=    1536KiB time=00:00:04.83 bitrate=2603.4kbits/s speed=0.012x elapsed=0:06:43.34    \nframe=  147 fps=0.4 q=42.7 size=    1536KiB time=00:00:04.83 bitrate=2603.4kbits/s speed=0.012x elapsed=0:06:43.86    \nframe=  147 fps=0.4 q=42.7 size=    1536KiB time=00:00:04.83 bitrate=2603.4kbits/s speed=0.012x elapsed=0:06:44.39    \nframe=  147 fps=0.4 q=42.7 size=    1536KiB time=00:00:04.83 bitrate=2603.4kbits/s speed=0.0119x elapsed=0:06:44.94    \nframe=  149 fps=0.4 q=43.8 size=    1536KiB time=00:00:04.90 bitrate=2568.0kbits/s speed=0.0121x elapsed=0:06:45.46    \nframe=  149 fps=0.4 q=43.8 size=    1536KiB time=00:00:04.90 bitrate=2568.0kbits/s speed=0.0121x elapsed=0:06:46.01    \n[mp4 @ 0000021c192eaa40] Starting second pass: moving the moov atom to the beginning of the file\n[out#0/mp4 @ 0000021c19f5f040] video:1790KiB audio:0KiB subtitle:0KiB other streams:0KiB global headers:2KiB muxing overhead: 0.281898%\nframe=  150 fps=0.4 q=44.7 Lsize=    1795KiB time=00:00:04.93 bitrate=2981.3kbits/s speed=0.0121x elapsed=0:06:46.08    \nx265 [info]: frame I:      2, Avg QP:38.04  kb/s: 7112.04 \nx265 [info]: frame P:     32, Avg QP:43.34  kb/s: 3789.13 \nx265 [info]: frame B:    116, Avg QP:45.52  kb/s: 2623.87 \nx265 [info]: Weighted P-Frames: Y:0.0% UV:0.0%\n\nencoded 150 frames in 405.29s (0.37 fps), 2932.30 kb/s, Avg QP:44.96\n",
  "seconds": 406.52407717704773,
  "probe_out": {}
}